<?xml version="1.0" encoding="UTF-8" standalone="no"?>
<!-- Created with Inkscape (http://www.inkscape.org/) -->

<svg
   version="1.1"
   id="svg2"
   width="559.37012"
   height="793.70081"
   viewBox="0 0 559.37012 793.70081"
   sodipodi:docname="Logo-fotografia.svg"
   inkscape:version="1.2.1 (9c6d41e410, 2022-07-14)"
   xmlns:inkscape="http://www.inkscape.org/namespaces/inkscape"
   xmlns:sodipodi="http://sodipodi.sourceforge.net/DTD/sodipodi-0.dtd"
   xmlns="http://www.w3.org/2000/svg"
   xmlns:svg="http://www.w3.org/2000/svg">
  <defs
     id="defs6" />
  <sodipodi:namedview
     id="namedview4"
     pagecolor="#ffffff"
     bordercolor="#000000"
     borderopacity="0.25"
     inkscape:showpageshadow="2"
     inkscape:pageopacity="0.0"
     inkscape:pagecheckerboard="0"
     inkscape:deskcolor="#d1d1d1"
     showgrid="false"
     inkscape:zoom="1.0545536"
     inkscape:cx="279.73923"
     inkscape:cy="321.46305"
     inkscape:window-width="1920"
     inkscape:window-height="1017"
     inkscape:window-x="-8"
     inkscape:window-y="-8"
     inkscape:window-maximized="1"
     inkscape:current-layer="g10">
    <inkscape:page
       x="0"
       y="0"
       id="page8"
       width="559.37012"
       height="793.70081" />
  </sodipodi:namedview>
  <g
     id="g10"
     inkscape:groupmode="layer"
     inkscape:label="Page 1"
     transform="matrix(1.3333333,0,0,-1.3333333,0,793.7008)">
    <g
       id="g12"
       transform="translate(-60.452123,123.03786)">
      <g
         id="g14">
        <path
           d="m 198.8011,454.8325 h 2.1322 l 5.1531,-12.6556 h -2.7442 l -1.0137,2.4877 h -4.8566 l -0.9938,-2.4877 h -2.7312 z m 1.076,-4.1462 -1.4905,-3.7313 h 3.0107 z m 23.6886,1.402 -1.8131,-1.698 c -0.3784,0.6548 -0.8489,1.1449 -1.4082,1.4675 -0.5562,0.3257 -1.1418,0.487 -1.7538,0.487 -0.9904,0 -1.8493,-0.375 -2.5767,-1.1287 -0.7305,-0.7501 -1.0956,-1.6353 -1.0956,-2.6587 0,-1.0859 0.3651,-2.004 1.0956,-2.7609 0.7274,-0.7534 1.6058,-1.1319 2.6359,-1.1319 0.5593,0 1.0956,0.1415 1.6155,0.4247 0.5167,0.2829 0.9312,0.8127 1.2472,1.5891 h -3.001 v 2.4681 h 5.8439 v -1.6387 c 0,-0.8425 -0.2894,-1.7473 -0.8685,-2.7148 -0.576,-0.9705 -1.3394,-1.675 -2.2836,-2.1225 -0.9445,-0.4474 -1.8987,-0.6713 -2.863,-0.6713 -1.7473,0 -3.2213,0.6319 -4.4223,1.8987 -1.2011,1.267 -1.8034,2.8332 -1.8034,4.699 0,1.7671 0.6188,3.2774 1.8558,4.5311 1.2373,1.2538 2.7247,1.8822 4.4688,1.8822 2.221,0 3.9322,-0.9739 5.1265,-2.9219 z m 16.3936,2.7442 h 2.6654 v -12.6556 h -2.6391 l -5.811,8.1936 v -8.1936 H 231.45 v 12.6556 h 2.6914 l 5.8179,-8.1343 z m 10.273,0 h 2.7247 v -12.6556 h -2.7247 z m 10.4871,0 h 7.1271 v -2.5075 h -4.4028 v -2.5467 h 4.4028 v -2.4681 h -4.4028 v -2.6257 h 4.4028 v -2.5076 h -7.1271 z m 21.7437,-1.1387 -1.698,-1.8623 c -0.898,0.5264 -1.5463,0.7897 -1.9411,0.7897 -0.3062,0 -0.5692,-0.1151 -0.7898,-0.3421 -0.2205,-0.2271 -0.3291,-0.497 -0.3291,-0.8096 0,-0.6219 0.5658,-1.1614 1.698,-1.6223 0.8291,-0.3552 1.4576,-0.6778 1.8853,-0.9641 0.4278,-0.2862 0.7866,-0.6811 1.076,-1.1911 0.2897,-0.5068 0.4346,-1.0562 0.4346,-1.6486 0,-1.0891 -0.4411,-2.0336 -1.3198,-2.8363 -0.8785,-0.8062 -1.9182,-1.2079 -3.1159,-1.2079 -1.3164,0 -2.6129,0.6188 -3.8962,1.8559 l 1.7935,2.0928 c 0.8096,-0.8292 1.563,-1.2436 2.2703,-1.2436 0.3291,0 0.6451,0.1446 0.9479,0.4343 0.3058,0.2863 0.4572,0.589 0.4572,0.9082 0,0.6514 -0.6976,1.237 -2.0928,1.7504 -0.7963,0.2962 -1.3621,0.5726 -1.7011,0.826 -0.339,0.2534 -0.6253,0.6253 -0.8555,1.1089 -0.2304,0.487 -0.3455,0.9805 -0.3455,1.4905 0,1.1253 0.3685,2.037 1.1024,2.738 0.7336,0.7007 1.6945,1.0496 2.8825,1.0496 1.4049,0 2.5829,-0.4376 3.5371,-1.3164 z m 7.6473,1.1387 h 9.1806 l -5.7189,-10.0494 h 5.5216 v -2.6062 h -9.7334 l 5.7189,10.0494 h -4.9688 z m 16.6107,0 h 2.7247 v -5.3569 h 0.0394 l 4.2185,5.3569 h 3.3234 l -4.8107,-6.0545 5.0082,-6.6011 h -3.2938 l -4.4456,5.91 h -0.0394 v -5.91 h -2.7247 z m 22.0567,0 h 2.1322 l 5.1528,-12.6556 h -2.7442 l -1.0134,2.4877 h -4.8569 l -0.9938,-2.4877 h -2.7312 z m 1.076,-4.1462 -1.4907,-3.7313 h 3.0107 z M 197.5771,433.3354 h 2.7048 v -8.9668 c 0,-1.1648 -0.3226,-2.0994 -0.9641,-2.8069 -0.6449,-0.7075 -1.4873,-1.0596 -2.5305,-1.0596 -0.7503,0 -1.4247,0.2205 -2.0202,0.6647 -0.5959,0.4442 -1.0531,1.1223 -1.3757,2.037 l 1.9843,1.5038 v -0.0397 c 0.013,-0.006 0.0788,-0.148 0.1942,-0.4209 0.115,-0.2767 0.2633,-0.5267 0.4407,-0.7473 0.1747,-0.2202 0.3654,-0.3322 0.5726,-0.3322 0.3028,0 0.5432,0.125 0.724,0.3751 0.1811,0.2503 0.2699,0.5859 0.2699,1.0037 z m 14.4552,0 h 2.1326 l 5.1528,-12.6556 h -2.7443 l -1.0136,2.4877 h -4.8566 l -0.9938,-2.4877 h -2.7312 z m 1.0761,-4.1462 -1.4905,-3.7316 h 3.0107 z m 21.6947,4.1462 h 2.6654 v -12.6556 h -2.6391 l -5.811,8.1936 v -8.1936 h -2.7247 v 12.6556 h 2.6915 l 5.8179,-8.1343 z m 10.4703,0 h 2.7246 v -5.3572 h 0.0394 l 4.2186,5.3572 h 3.3236 l -4.811,-6.0548 5.0083,-6.6008 h -3.2939 l -4.4456,5.91 h -0.0394 v -5.91 h -2.7246 z m 16.0744,-6.3244 c 0,1.8723 0.6185,3.4155 1.8559,4.6364 1.2373,1.2175 2.7048,1.826 4.3993,1.826 1.8791,0 3.4288,-0.612 4.6562,-1.836 1.2274,-1.2274 1.8428,-2.7739 1.8428,-4.6431 0,-1.859 -0.6089,-3.4021 -1.8229,-4.6295 -1.2144,-1.2274 -2.7443,-1.8428 -4.5871,-1.8428 -1.8459,0 -3.363,0.612 -4.5575,1.8328 -1.1911,1.2206 -1.7867,2.774 -1.7867,4.6562 z m 6.3902,3.9354 c -1.0628,0.0198 -1.9183,-0.3456 -2.5699,-1.099 -0.6514,-0.7535 -0.9771,-1.7243 -0.9771,-2.9123 0,-1.1254 0.3322,-2.0566 0.9969,-2.797 0.6613,-0.7404 1.5004,-1.1089 2.5141,-1.1089 1.0627,0 1.9216,0.3654 2.5764,1.0959 0.6548,0.7271 0.9805,1.6914 0.9805,2.8859 0,1.1778 -0.3192,2.1223 -0.9607,2.8364 -0.6418,0.714 -1.4941,1.0791 -2.5602,1.099 z m 12.6754,2.389 h 2.4281 l 2.0239,-8.6278 2.1124,8.6278 h 1.7507 l 2.0993,-8.6675 2.0829,8.6675 h 2.4086 l -3.0435,-12.6556 h -2.5504 l -1.8788,7.7593 -1.8623,-7.7593 h -2.5798 z m 28.9105,-1.1387 -1.6979,-1.8623 c -0.8983,0.5264 -1.5466,0.7897 -1.9412,0.7897 -0.3062,0 -0.5695,-0.1151 -0.79,-0.3421 -0.2203,-0.2271 -0.3288,-0.497 -0.3288,-0.8096 0,-0.6219 0.5657,-1.1617 1.6979,-1.6223 0.8291,-0.3555 1.4576,-0.6778 1.8853,-0.9641 0.4278,-0.2863 0.7866,-0.6811 1.0761,-1.1911 0.2897,-0.5068 0.4342,-1.0564 0.4342,-1.6486 0,-1.0894 -0.4408,-2.0336 -1.3195,-2.8363 -0.8785,-0.8065 -1.9182,-1.2079 -3.1161,-1.2079 -1.3162,0 -2.6127,0.6188 -3.896,1.8559 l 1.7932,2.0928 c 0.8096,-0.8292 1.5633,-1.2439 2.2706,-1.2439 0.3291,0 0.6452,0.1449 0.9479,0.4346 0.3058,0.286 0.4572,0.589 0.4572,0.9082 0,0.6514 -0.6976,1.237 -2.0928,1.7504 -0.7963,0.2962 -1.3623,0.5726 -1.7011,0.826 -0.339,0.2534 -0.6253,0.625 -0.8555,1.1089 -0.2304,0.487 -0.3455,0.9805 -0.3455,1.4905 0,1.1253 0.3685,2.037 1.1024,2.7377 0.7336,0.701 1.6945,1.0499 2.8823,1.0499 1.4051,0 2.5832,-0.4376 3.5373,-1.3164 z m 7.5487,1.1387 h 2.7246 v -5.3572 h 0.0394 l 4.2185,5.3572 h 3.3234 l -4.8107,-6.0548 5.0083,-6.6008 h -3.2939 l -4.4456,5.91 h -0.0394 v -5.91 h -2.7246 z m 22.0563,0 h 2.1325 l 5.1529,-12.6556 H 343.47 l -1.0136,2.4877 h -4.8566 l -0.9938,-2.4877 h -2.7312 z m 1.0761,-4.1462 -1.4905,-3.7316 h 3.0107 z"
           style="fill:#1a1a18;fill-opacity:1;fill-rule:nonzero;stroke:none"
           id="path16" />
        <path
           d="m 193.7469,404.3551 h 5.7413 v -1.4145 h -4.3268 v -2.5631 h 4.3268 v -1.4144 h -4.3268 v -4.9593 h -1.4145 z m 11.5143,-5.1035 c 0,1.495 0.563,2.7737 1.6892,3.8387 1.1287,1.065 2.4823,1.5976 4.0632,1.5976 1.5449,0 2.8735,-0.538 3.9914,-1.6115 1.1149,-1.0735 1.6725,-2.3465 1.6725,-3.8248 0,-1.5616 -0.5519,-2.8817 -1.6532,-3.9608 -1.1038,-1.0789 -2.4545,-1.6197 -4.0578,-1.6197 -1.5837,0 -2.929,0.5436 -4.0385,1.631 -1.112,1.0871 -1.6668,2.4046 -1.6668,3.9495 z m 9.9185,-0.0805 c 0,1.1401 -0.4105,2.0996 -1.2343,2.882 -0.8237,0.7792 -1.8391,1.1704 -3.0427,1.1704 -1.1426,0 -2.1217,-0.3965 -2.9372,-1.1928 -0.8155,-0.7931 -1.2232,-1.7473 -1.2232,-2.8596 0,-1.1287 0.419,-2.0829 1.2563,-2.865 0.8377,-0.7795 1.8613,-1.1704 3.0762,-1.1704 1.1177,0 2.0801,0.3991 2.8899,1.1954 0.8099,0.796 1.215,1.7444 1.215,2.84 z m 6.9213,5.184 h 6.357 v -1.4145 h -2.4798 v -8.9368 h -1.4145 v 8.9368 h -2.4627 z m 11.6972,-5.1035 c 0,1.495 0.5632,2.7737 1.6891,3.8387 1.1288,1.065 2.4823,1.5976 4.0635,1.5976 1.5449,0 2.8732,-0.538 3.9912,-1.6115 1.1149,-1.0735 1.6724,-2.3465 1.6724,-3.8248 0,-1.5616 -0.5519,-2.8817 -1.6531,-3.9608 -1.1039,-1.0789 -2.4546,-1.6197 -4.0578,-1.6197 -1.5838,0 -2.9288,0.5436 -4.0383,1.631 -1.1123,1.0871 -1.667,2.4046 -1.667,3.9495 z m 9.9184,-0.0805 c 0,1.1401 -0.4105,2.0996 -1.2342,2.882 -0.8238,0.7792 -1.8388,1.1704 -3.0427,1.1704 -1.1427,0 -2.1217,-0.3965 -2.9373,-1.1928 -0.8152,-0.7931 -1.2231,-1.7473 -1.2231,-2.8596 0,-1.1287 0.4189,-2.0829 1.2566,-2.865 0.8376,-0.7795 1.8609,-1.1704 3.0758,-1.1704 1.1177,0 2.0804,0.3991 2.8903,1.1954 0.8098,0.796 1.2146,1.7444 1.2146,2.84 z m 17.9048,3.5365 -1.0486,-1.0318 c -1.0593,1.0318 -2.2853,1.5477 -3.6805,1.5477 -1.2175,0 -2.2328,-0.3912 -3.0427,-1.1704 -0.8099,-0.7795 -1.2146,-1.7529 -1.2146,-2.9237 0,-1.0204 0.3937,-1.9442 1.1786,-2.7623 0.7849,-0.8209 1.8695,-1.2314 3.2508,-1.2314 2.0718,0 3.3755,0.8986 3.9078,2.6958 H 258.16 v 1.4145 h 4.4266 c 0,-0.7073 -0.0471,-1.2731 -0.1415,-1.6946 -0.0969,-0.4215 -0.2911,-0.8847 -0.5907,-1.3924 -0.2997,-0.5077 -0.6962,-0.9623 -1.1926,-1.3646 -0.4966,-0.4022 -1.0264,-0.6908 -1.595,-0.8654 -0.5658,-0.1718 -1.2425,-0.2579 -2.0302,-0.2579 -1.7889,0 -3.2173,0.5604 -4.2823,1.6835 -1.0681,1.1233 -1.6004,2.4049 -1.6004,3.85 0,1.5196 0.5462,2.8122 1.6364,3.88 1.0899,1.0681 2.4128,1.6033 3.9634,1.6033 0.9235,0 1.764,-0.1386 2.5268,-0.419 0.7628,-0.2772 1.5421,-0.7985 2.3409,-1.5613 z m 7.5702,1.6475 h 2.2439 c 1.1177,0 2.0248,-0.2775 2.7266,-0.8322 0.7016,-0.5548 1.0536,-1.2646 1.0536,-2.13 0,-0.6908 -0.2245,-1.3036 -0.6766,-1.8334 -0.4521,-0.5298 -1.1565,-0.9043 -2.1135,-1.1206 l 2.99,-4.4351 h -1.6226 l -2.8706,4.2602 h -0.3161 v -4.2602 h -1.4147 z m 1.4147,-1.2484 v -3.611 c 2.0858,-0.0445 3.1286,0.5601 3.1286,1.8139 0,0.4382 -0.1221,0.7988 -0.3662,1.0788 -0.2441,0.2776 -0.5686,0.4689 -0.9734,0.5687 -0.4079,0.1 -1.0043,0.1496 -1.789,0.1496 z m 15.1005,1.6478 4.8843,-10.7507 h -1.4728 l -1.2011,2.6462 h -4.3959 l -1.1957,-2.6462 h -1.47 z m 0.006,-3.2508 -1.6588,-3.6722 h 3.3256 z m 10.6016,2.8514 h 5.7416 v -1.4145 h -4.3268 v -2.5631 h 4.3268 v -1.4144 h -4.3268 v -4.9593 h -1.4148 z m 11.9137,0 h 1.4148 v -10.3513 h -1.4148 z m 12.0915,0.3994 4.8841,-10.7507 h -1.4726 l -1.201,2.6462 h -4.3963 l -1.1954,-2.6462 h -1.47 z m 0.005,-3.2508 -1.6586,-3.6722 h 3.3257 z"
           style="fill:#1a1a18;fill-opacity:1;fill-rule:nonzero;stroke:none"
           id="path18" />
      </g>
      <g
         id="g20">
        <path
           d="m 159.7034,455.8402 c 14.828,-0.4462 12.1898,-9.1386 12.183,-27.0604 l -0.0102,-24.4442 c -0.003,-7.8098 -5.3575,-9.5434 -12.1728,-9.8343 V 394.49 h -0.2982 c -1.7501,-0.0638 -3.5915,-0.0383 -5.4598,0 H 89.7866 c 4.2179,2.8006 7.0177,7.5798 7.0177,13.0005 v 6.4831 c 0.0059,0.1534 0.0093,0.3067 0.0093,0.4601 v 3.81 h 5.3893 c 2.9454,0 5.7104,0.8218 8.0713,2.2491 0.6582,-4.2188 2.3074,-8.2474 4.9462,-11.6632 0.3657,-0.4734 0.7481,-0.9383 1.1378,-1.3921 0.2747,-0.32 0.5687,-0.6596 0.8734,-0.9748 0.0666,1.8898 0.2869,3.7896 0.5919,5.6387 0.5476,3.3216 1.404,6.7169 2.5424,9.8866 1.3203,3.6754 3.0279,7.0506 5.0723,10.3689 0.3209,0.521 0.6304,1.0471 0.9689,1.5573 -2.918,-0.4765 -5.916,-1.4196 -8.7738,-2.5588 0.1278,0.7988 0.195,1.6175 0.195,2.4517 v 0.769 c 5.5718,1.9219 11.6784,3.0838 17.4679,2.9957 h 0.007 l 4.0266,-0.1228 c -0.1145,0.1319 -0.2242,0.2549 -0.3214,0.3637 -0.7501,0.8388 -1.5545,1.6421 -2.3647,2.4228 -1.3005,1.2529 -2.6716,2.5121 -4.066,3.6612 -0.4122,0.3396 -0.8569,0.6647 -1.2861,0.9831 -0.6984,0.5182 -1.4037,1.0275 -2.1152,1.5273 -0.7055,0.4955 -1.4204,0.9864 -2.1498,1.4459 -0.2577,0.1622 -0.7971,0.5123 -1.1353,0.6517 -0.5227,-0.121 -1.762,-0.8147 -2.2045,-1.038 -0.6015,-0.303 -1.1939,-0.6415 -1.7753,-1.0103 0.2083,0.6973 0.3642,1.4102 0.4654,2.1322 0.3212,1.6095 0.5298,3.2539 0.6636,4.8892 0.0621,0.7597 0.1145,1.5356 0.131,2.2986 l 0.003,0.1469 h 9.0315 l 10.7118,0.007 v 5.7566 c 0,0.9581 0.7838,1.7419 1.7419,1.7419 h 12.5376 c 0.9581,0 1.7419,-0.7838 1.7419,-1.7419 v -5.7631 h 0.7637 v -0.0831 z M 145.4579,415.184 c 1.1395,0.2007 2.275,0.4729 3.3735,0.7699 2.0389,0.5519 4.0736,1.2305 6.0392,2.0044 0.4532,0.1783 0.9093,0.3872 1.3544,0.5856 0.7682,0.3422 1.533,0.6928 2.2932,1.0525 0.7294,0.345 1.459,0.6979 2.1719,1.0752 0.2466,0.1307 0.771,0.3972 1.0409,0.5998 0.0819,0.3484 0.1117,1.01 0.1284,1.3062 0.0306,0.5432 0.0485,1.0931 0.051,1.6373 0.0162,3.9785 -0.7923,8.0686 -2.5835,11.638 -1.1055,2.2025 -2.8709,4.9671 -4.7043,6.7705 -0.2557,-7.5532 -2.8038,-16.2737 -6.3278,-22.6593 l -0.007,-0.0125 -2.8301,-4.7676 z m 3.3224,12.8741 c 0.3065,0.8972 0.5729,1.8151 0.8244,2.729 0.392,1.4241 0.7778,2.9043 1.0669,4.3534 0.3504,1.7566 0.6055,3.5666 0.7804,5.3487 0.1494,1.5208 0.267,3.183 0.1794,4.7319 -0.5232,0.3305 -1.0221,0.7163 -1.5332,1.0638 -0.9349,0.6358 -1.9109,1.1829 -2.9228,1.6869 -5.3099,2.6436 -11.8114,3.1697 -17.5955,1.7572 l 1.7308,-1.1458 0.015,-0.0104 c 2.2856,-1.6481 4.4737,-3.3818 6.4993,-5.3445 1.9332,-1.8731 3.6683,-3.9041 5.3289,-6.0199 1.4414,-1.8363 2.6628,-3.729 3.8001,-5.7643 0.6253,-1.1194 1.2223,-2.2547 1.8263,-3.386 z m -25.7085,-7.1308 c -0.0839,-0.2441 -0.165,-0.489 -0.2446,-0.7336 -0.2665,-0.8189 -0.5273,-1.6543 -0.7526,-2.4857 -1.0573,-3.9013 -1.6909,-7.8956 -1.815,-11.9375 -0.0151,-0.4907 -0.046,-0.98 -0.0621,-1.4698 -0.003,-0.0955 -0.0145,-0.3473 0.008,-0.4572 0.0533,-0.0553 0.1704,-0.1341 0.2234,-0.1707 0.6638,-0.4592 1.3135,-0.9408 2.0086,-1.3527 3.1408,-1.8618 6.6713,-3.0965 10.2923,-3.5711 3.2185,-0.4218 6.4588,-0.2369 9.5806,0.5786 l -1.823,1.2084 -0.0122,0.009 c -1.1256,0.7994 -2.2357,1.6308 -3.2941,2.5183 -0.9119,0.7642 -1.7938,1.5361 -2.647,2.3655 -0.6217,0.6041 -1.2357,1.2104 -1.8692,1.8031 -1.2382,1.1577 -2.4043,2.6161 -3.4376,3.9597 -1.0341,1.3448 -2.0457,2.7463 -2.965,4.1721 -1.1574,1.7954 -2.2079,3.6646 -3.1907,5.5641 z m 9.4992,-9.2772 c 0.2035,-0.237 0.411,-0.4709 0.6191,-0.7024 0.6279,-0.6974 1.2798,-1.3992 1.9454,-2.0608 1.4227,-1.4137 2.9469,-2.7564 4.5145,-4.0071 1.3456,-1.0735 2.7549,-2.105 4.2207,-3.0084 0.5497,-0.3385 1.082,-0.7038 1.63,-1.0414 0.0961,-0.059 0.3858,-0.2384 0.5025,-0.2464 0.243,-0.0161 1.91,0.8955 2.1668,1.025 5.9086,2.9792 11.0552,9.3612 12.8121,15.9027 -0.9116,-0.4609 -1.8252,-0.9105 -2.7559,-1.3343 -3.0722,-1.3983 -6.258,-2.5106 -9.5539,-3.251 -3.0795,-0.692 -6.0794,-1.188 -9.2369,-1.3136 -2.2751,-0.0904 -4.5768,-0.0238 -6.8644,0.0377"
           style="fill:#fbdeeb;fill-opacity:1;fill-rule:evenodd;stroke:none"
           id="path22" />
        <path
           d="m 118.6016,405.0918 c 0.0666,1.8899 0.2868,3.7894 0.5916,5.6387 0.5479,3.3214 1.404,6.7167 2.5426,9.8867 1.3204,3.6754 3.0277,7.0503 5.0721,10.3688 0.3209,0.5211 0.6307,1.0472 0.9689,1.5571 -0.8436,-0.1377 -1.6937,-0.3143 -2.5453,-0.5235 -1.953,-3.21 -3.5901,-6.4806 -4.8656,-10.0316 -1.1384,-3.1697 -1.9948,-6.565 -2.5424,-9.8866 -0.2951,-1.789 -0.5108,-3.625 -0.5848,-5.4539 0.1613,-0.1953 0.3248,-0.3892 0.4895,-0.5808 0.2747,-0.3201 0.5687,-0.6596 0.8734,-0.9749"
           style="fill:#e4a8c1;fill-opacity:1;fill-rule:evenodd;stroke:none"
           id="path24" />
        <path
           d="m 146.8278,413.8132 c 1.1396,0.2004 2.2751,0.4728 3.3736,0.7699 2.0386,0.5516 4.0736,1.2305 6.0392,2.0041 0.4532,0.1786 0.9093,0.3875 1.3541,0.5856 0.7682,0.3424 1.5332,0.6931 2.2935,1.0525 0.7291,0.345 1.4587,0.6982 2.1719,1.0755 0.2466,0.1307 0.7707,0.3971 1.0409,0.5998 0.0819,0.3481 0.1117,1.01 0.1284,1.3062 0.0306,0.5431 0.0485,1.093 0.0507,1.6373 0.0162,3.9784 -0.7923,8.0685 -2.5835,11.6376 -1.1055,2.2028 -2.8706,4.9672 -4.7043,6.7709 l -0.006,-0.1517 c 1.3178,-1.639 2.5138,-3.6006 3.3406,-5.248 1.7912,-3.5694 2.5997,-7.6595 2.5835,-11.638 -0.002,-0.5442 -0.0204,-1.0941 -0.051,-1.6373 -0.0167,-0.2962 -0.0465,-0.9578 -0.1284,-1.3062 -0.2699,-0.2026 -0.7943,-0.4691 -1.0409,-0.5998 -0.7129,-0.3773 -1.4425,-0.7302 -2.1719,-1.0752 -0.7602,-0.3597 -1.525,-0.7103 -2.2932,-1.0525 -0.4451,-0.1984 -0.9012,-0.4073 -1.3544,-0.5856 -1.9656,-0.7739 -4.0003,-1.4525 -6.0392,-2.0044 -0.2869,-0.0776 -0.5763,-0.1533 -0.8674,-0.2268 z"
           style="fill:#e4a8c1;fill-opacity:1;fill-rule:evenodd;stroke:none"
           id="path26" />
        <path
           d="m 150.1503,426.6873 c 0.3062,0.8972 0.5726,1.815 0.8241,2.7289 0.392,1.4241 0.7781,2.9044 1.0669,4.3532 0.3507,1.7569 0.6055,3.5665 0.7804,5.349 0.1494,1.5205 0.2673,3.183 0.1797,4.7318 -0.4609,0.2909 -0.9028,0.6248 -1.3507,0.938 0.0465,-1.4227 -0.0632,-2.9191 -0.1987,-4.299 -0.1749,-1.7821 -0.43,-3.5921 -0.7804,-5.3487 -0.2891,-1.4491 -0.6749,-2.9293 -1.0669,-4.3534 -0.1829,-0.6645 -0.3736,-1.3306 -0.5817,-1.9897 0.3784,-0.7018 0.7515,-1.4068 1.1273,-2.1101"
           style="fill:#e4a8c1;fill-opacity:1;fill-rule:evenodd;stroke:none"
           id="path28" />
        <path
           d="m 121.5763,402.8726 c -0.003,-0.0799 -0.006,-0.1602 -0.009,-0.2404 -0.003,-0.0955 -0.0145,-0.3472 0.008,-0.4572 0.0533,-0.0553 0.1701,-0.1341 0.2234,-0.1707 0.6635,-0.4592 1.3135,-0.9408 2.0086,-1.3526 3.1405,-1.8618 6.671,-3.0966 10.292,-3.5711 3.2185,-0.4218 6.4588,-0.237 9.5806,0.5785 l -1.823,1.2084 -0.0119,0.008 c -0.1182,0.0839 -0.2361,0.1681 -0.3541,0.2529 -2.8675,-0.6443 -5.8235,-0.7648 -8.7613,-0.3799 -3.621,0.4746 -7.1515,1.7093 -10.2923,3.5711 -0.2937,0.1741 -0.5794,0.3606 -0.8614,0.5525"
           style="fill:#e4a8c1;fill-opacity:1;fill-rule:evenodd;stroke:none"
           id="path30" />
        <path
           d="m 117.9609,432.8623 c 5.8272,2.1257 12.3084,3.4316 18.4346,3.3386 l 0.007,-2e-4 4.0266,-0.1225 c -0.1142,0.1318 -0.2242,0.2548 -0.3215,0.3634 -0.3067,0.3433 -0.6227,0.6803 -0.9445,1.0125 l -3.8599,0.1177 h -0.007 c -5.7333,0.0873 -11.7776,-1.0511 -17.3058,-2.9398 v -0.8249 c 0,-0.3172 -0.0107,-0.6321 -0.0295,-0.9448"
           style="fill:#e4a8c1;fill-opacity:1;fill-rule:evenodd;stroke:none"
           id="path32" />
        <path
           d="m 145.8556,400.6318 c 0.3557,-0.2302 0.7089,-0.464 1.0689,-0.6857 0.0961,-0.059 0.3861,-0.2387 0.5026,-0.2463 0.2432,-0.0165 1.91,0.8952 2.1668,1.0247 5.9085,2.9792 11.0551,9.3614 12.812,15.9029 -0.6707,-0.3393 -1.3428,-0.6723 -2.0219,-0.9935 -2.1549,-5.8584 -6.8729,-11.3321 -12.214,-14.0253 -0.2568,-0.1295 -1.9238,-1.0411 -2.1668,-1.025 -0.0362,0.003 -0.089,0.0216 -0.1476,0.0482"
           style="fill:#e4a8c1;fill-opacity:1;fill-rule:evenodd;stroke:none"
           id="path34" />
        <path
           d="m 89.1459,423.102 13.6355,0.3175 c 5.476,0 9.8918,4.3334 10.2532,10.124 l -26.6088,-0.0786 c -0.0774,0 -0.1551,-8e-4 -0.2324,-0.003 -0.0244,-6e-4 -0.0485,-0.001 -0.0729,-0.002 -0.0556,-0.002 -0.1111,-0.004 -0.1667,-0.006 -0.0252,-10e-4 -0.0507,-0.002 -0.0762,-0.004 -0.0593,-0.003 -0.1185,-0.007 -0.1778,-0.0113 -0.0181,-0.001 -0.0365,-0.003 -0.0547,-0.004 -0.0757,-0.006 -0.1516,-0.0125 -0.227,-0.0201 -0.0184,-0.002 -0.0366,-0.004 -0.055,-0.006 -0.0584,-0.006 -0.1171,-0.013 -0.1755,-0.0201 -0.0252,-0.003 -0.0502,-0.007 -0.0754,-0.01 -0.0536,-0.007 -0.1071,-0.0145 -0.1607,-0.0224 -0.0232,-0.003 -0.0465,-0.007 -0.0697,-0.0105 -0.0706,-0.011 -0.1409,-0.0224 -0.2112,-0.0349 -0.0057,-0.001 -0.0114,-0.002 -0.017,-0.003 -0.0717,-0.0127 -0.1435,-0.0266 -0.2146,-0.0411 -0.0241,-0.005 -0.0479,-0.0102 -0.0717,-0.015 -0.0516,-0.0111 -0.1032,-0.0221 -0.1545,-0.0337 -0.0252,-0.006 -0.0505,-0.0117 -0.0757,-0.0176 -0.0539,-0.0125 -0.1074,-0.0258 -0.161,-0.0394 -0.0196,-0.005 -0.0391,-0.009 -0.0587,-0.0145 -0.0706,-0.0184 -0.1411,-0.0374 -0.2114,-0.0572 -0.0188,-0.005 -0.0375,-0.0111 -0.0562,-0.0165 -0.0533,-0.0156 -0.1063,-0.0312 -0.1593,-0.0476 -0.0258,-0.008 -0.0513,-0.0159 -0.0765,-0.0238 -0.0476,-0.015 -0.095,-0.0306 -0.1423,-0.0462 -0.0247,-0.008 -0.0491,-0.0164 -0.0737,-0.0247 -0.059,-0.0201 -0.1177,-0.0411 -0.1763,-0.0623 -0.0111,-0.004 -0.0221,-0.008 -0.0326,-0.0114 -0.0669,-0.0246 -0.1335,-0.0499 -0.1996,-0.0759 -0.0249,-0.01 -0.0496,-0.0199 -0.0743,-0.0298 -0.045,-0.0179 -0.0898,-0.0363 -0.1343,-0.0547 -0.0261,-0.0111 -0.0525,-0.0221 -0.0783,-0.0332 -0.0453,-0.0193 -0.0907,-0.0394 -0.1357,-0.0592 -0.0224,-0.01 -0.0451,-0.0199 -0.0675,-0.0301 -0.0635,-0.0289 -0.1267,-0.0581 -0.1896,-0.0884 -0.0216,-0.0102 -0.0428,-0.021 -0.0644,-0.0315 -0.0445,-0.0218 -0.089,-0.0439 -0.1335,-0.0663 -0.0266,-0.0133 -0.053,-0.0272 -0.0796,-0.0411 -0.0394,-0.0204 -0.0789,-0.0411 -0.118,-0.0621 -0.0263,-0.0139 -0.0524,-0.028 -0.0785,-0.0422 -0.0451,-0.0247 -0.0898,-0.0496 -0.1344,-0.0751 -0.0249,-0.0139 -0.0496,-0.0278 -0.0742,-0.0423 -0.0527,-0.0303 -0.1052,-0.0612 -0.1573,-0.0927 -0.0267,-0.0161 -0.0533,-0.0326 -0.0797,-0.0487 -0.036,-0.0224 -0.072,-0.0445 -0.1077,-0.0672 -0.0272,-0.0173 -0.0547,-0.0346 -0.0816,-0.0522 -0.0358,-0.0229 -0.0712,-0.0465 -0.1063,-0.07 -0.0256,-0.0167 -0.0511,-0.0334 -0.076,-0.0504 -0.055,-0.0372 -0.1097,-0.0746 -0.1636,-0.1129 -0.0255,-0.0181 -0.0504,-0.0365 -0.0757,-0.0547 -0.0337,-0.0241 -0.0674,-0.0484 -0.1006,-0.0731 -0.0281,-0.0204 -0.0556,-0.0414 -0.083,-0.0621 -0.0304,-0.0229 -0.0604,-0.0462 -0.0908,-0.0691 -0.0275,-0.0213 -0.0549,-0.0426 -0.0822,-0.0641 -0.0314,-0.0249 -0.0623,-0.0499 -0.0932,-0.0751 -0.0408,-0.0329 -0.0814,-0.0661 -0.1213,-0.0995 -0.0343,-0.0286 -0.0684,-0.057 -0.1021,-0.0859 -0.0278,-0.0238 -0.0553,-0.0482 -0.083,-0.0723 -0.0264,-0.0232 -0.0528,-0.0465 -0.0791,-0.07 -0.0278,-0.025 -0.0556,-0.0499 -0.0831,-0.0751 -0.0255,-0.0236 -0.051,-0.0474 -0.0762,-0.0709 -0.0273,-0.0252 -0.0545,-0.0507 -0.0814,-0.0762 -0.0283,-0.0273 -0.0561,-0.0545 -0.0842,-0.082 -0.0451,-0.0439 -0.0898,-0.0884 -0.1341,-0.1335 -0.0226,-0.0229 -0.0453,-0.0459 -0.068,-0.0691 -0.0278,-0.0287 -0.0553,-0.0576 -0.0825,-0.0868 -0.0215,-0.0227 -0.0428,-0.0453 -0.064,-0.0683 -0.0275,-0.0295 -0.0548,-0.059 -0.0817,-0.089 -0.0198,-0.0218 -0.0394,-0.0442 -0.0592,-0.0663 -0.0519,-0.0584 -0.1032,-0.1174 -0.1539,-0.1769 -0.0162,-0.0193 -0.0326,-0.0383 -0.0488,-0.0573 -0.0272,-0.0326 -0.0539,-0.0655 -0.0805,-0.0983 -0.0181,-0.0221 -0.0363,-0.0443 -0.0541,-0.0667 -0.0264,-0.0328 -0.0525,-0.066 -0.0786,-0.0992 -0.017,-0.0221 -0.0343,-0.0445 -0.0513,-0.0666 -0.0261,-0.0343 -0.0524,-0.0683 -0.0782,-0.1029 -0.0096,-0.013 -0.0193,-0.0261 -0.0289,-0.0394 -0.0539,-0.0728 -0.1066,-0.1462 -0.1585,-0.2205 -0.0142,-0.0201 -0.0283,-0.0403 -0.0422,-0.0604 -0.025,-0.0366 -0.0496,-0.0731 -0.0743,-0.11 -0.0144,-0.0218 -0.0292,-0.0436 -0.0436,-0.0657 -0.0244,-0.0369 -0.0485,-0.074 -0.0723,-0.1114 -0.0125,-0.0193 -0.0244,-0.0389 -0.0366,-0.0582 -0.7262,-1.1548 -1.3195,-3.1348 -1.8575,-4.3863 -0.3748,-0.8716 -0.7294,-1.7512 -1.0854,-2.6305 l -1.6716,-4.0865 c 0.246,10.3218 -0.0539,11.7924 0.2837,27.0128 0.097,4.3594 5.3275,11.1841 12.2483,11.3088 20.1809,0.364 34.711,-0.1394 34.711,-0.1394 0,0 -0.0742,-3.4149 -0.7602,-6.8089 -0.14,-1.0468 -0.4173,-2.0517 -0.8121,-2.9968 -0.4604,-1.2724 -1.0545,-2.3612 -1.8216,-3.0191 -5e-4,-6e-4 -0.001,-0.001 -0.002,-0.002 -2.2179,-2.6895 -5.5809,-4.4119 -9.33,-4.4119 H 94.2267 c -0.7804,0 -1.4225,-0.6392 -1.4225,-1.4159 0,-0.7764 0.6421,-1.4156 1.4225,-1.4156 h 20.9857 v -1.9559 c 0,-7.1249 -5.8504,-12.9473 -13.0093,-12.9473 h -5.927 c -1.1409,0 -2.0784,-0.9328 -2.0784,-2.0684 v -4.3577 c 0,-0.1366 -0.0036,-0.2724 -0.0093,-0.4076 v -6.5356 c 0,-7.1501 -5.8782,-13.0005 -13.0629,-13.0005 h -7.7924 l 0.0164,20.8307 c 2.9347,3.0248 7.8922,5.8368 8.1,5.9539 2.0463,1.0286 4.536,1.8274 7.6966,1.8274"
           style="fill:#e4a8c1;fill-opacity:1;fill-rule:evenodd;stroke:none"
           id="path36" />
      </g>
    </g>
    <g
       id="g64">
      <g
         id="g66">
        <path
           d="m -1040.4955,1652.0267 h 3.2935 l 7.9592,-19.5472 h -4.239 l -1.5653,3.8424 h -7.5016 l -1.5349,-3.8424 h -4.2185 z m 1.6619,-6.4038 -2.3023,-5.7634 h 4.6505 z m 36.5885,2.1651 -2.8003,-2.6226 c -0.5846,1.0114 -1.3114,1.7688 -2.1754,2.2666 -0.8589,0.5034 -1.7637,0.7523 -2.709,0.7523 -1.5299,0 -2.8562,-0.5794 -3.9796,-1.7433 -1.1282,-1.1585 -1.6923,-2.5257 -1.6923,-4.1065 0,-1.6773 0.5641,-3.0952 1.6923,-4.2642 1.1234,-1.1639 2.4803,-1.7484 4.0711,-1.7484 0.864,0 1.6926,0.2185 2.4957,0.6556 0.7976,0.4371 1.4383,1.2555 1.9261,2.4548 h -4.6352 v 3.8121 h 9.0263 v -2.5311 c 0,-1.3011 -0.4473,-2.6988 -1.3416,-4.193 -0.8895,-1.4995 -2.0687,-2.5872 -3.5274,-3.2783 -1.4585,-0.691 -2.9325,-1.0369 -4.4215,-1.0369 -2.6989,0 -4.9757,0.976 -6.8309,2.9328 -1.855,1.9567 -2.7851,4.3758 -2.7851,7.2575 0,2.7295 0.9553,5.0621 2.8664,6.9985 1.9111,1.9366 4.2083,2.9072 6.9018,2.9072 3.4308,0 6.0738,-1.5044 7.9186,-4.5131 z m 25.3208,4.2387 h 4.1167 v -19.5472 h -4.0762 l -8.9756,12.6553 v -12.6553 h -4.2083 v 19.5472 h 4.1575 l 8.9859,-12.5637 z m 15.8672,0 h 4.2083 v -19.5472 h -4.2083 z m 16.1977,0 h 11.0086 v -3.8727 h -6.8003 v -3.9339 h 6.8003 v -3.8118 h -6.8003 v -4.0558 h 6.8003 v -3.873 h -11.0086 z m 33.5846,-1.7586 -2.6223,-2.8766 c -1.3876,0.8132 -2.3888,1.22 -2.9988,1.22 -0.4725,0 -0.8793,-0.178 -1.2198,-0.5287 -0.3404,-0.3509 -0.5082,-0.7676 -0.5082,-1.2503 0,-0.9607 0.8742,-1.7941 2.6226,-2.5059 1.2807,-0.5487 2.2516,-1.0468 2.912,-1.489 0.6608,-0.4422 1.215,-1.0519 1.662,-1.84 0.4473,-0.7823 0.671,-1.6313 0.671,-2.546 0,-1.6824 -0.6809,-3.1411 -2.0382,-4.3813 -1.3569,-1.2449 -2.963,-1.8652 -4.8129,-1.8652 -2.033,0 -4.0354,0.9556 -6.0177,2.8667 l 2.77,3.2324 c 1.2504,-1.2807 2.4143,-1.9211 3.5068,-1.9211 0.5082,0 0.9964,0.2237 1.4638,0.6707 0.4728,0.4422 0.7064,0.9099 0.7064,1.4029 0,1.0063 -1.0775,1.9108 -3.2324,2.7036 -1.2299,0.4576 -2.1041,0.8845 -2.6277,1.2759 -0.5232,0.3915 -0.9655,0.9655 -1.3212,1.7127 -0.356,0.7523 -0.5338,1.5146 -0.5338,2.3023 0,1.7382 0.5692,3.1462 1.7025,4.2287 1.1336,1.0826 2.6175,1.6212 4.4524,1.6212 2.1702,0 3.9898,-0.6758 5.4635,-2.033 z m 11.8117,1.7586 h 14.18 l -8.8333,-15.5217 h 8.5283 v -4.0255 h -15.0338 l 8.8333,15.522 h -7.6745 z m 25.6561,0 h 4.2083 v -8.2741 h 0.0609 l 6.5158,8.2741 h 5.1332 l -7.4304,-9.3518 7.7354,-10.1954 h -5.0876 l -6.8664,9.1282 h -0.0609 v -9.1282 h -4.2083 z m 34.0676,0 h 3.2933 l 7.9591,-19.5472 h -4.2389 l -1.5653,3.8424 h -7.5016 l -1.535,-3.8424 h -4.2182 z m 1.662,-6.4038 -2.3026,-5.7634 h 4.6505 z m -204.3088,-26.7998 h 4.1779 v -13.8496 c 0,-1.7991 -0.4983,-3.2425 -1.4893,-4.3353 -0.9961,-1.0927 -2.2972,-1.6367 -3.9084,-1.6367 -1.1588,0 -2.2005,0.3407 -3.1206,1.0267 -0.9199,0.6863 -1.6263,1.7334 -2.1243,3.1462 l 3.0645,2.3227 v -0.061 c 0.02,-0.01 0.1222,-0.2288 0.2999,-0.6506 0.178,-0.4272 0.4068,-0.8133 0.6812,-1.1537 0.2693,-0.3407 0.5641,-0.5133 0.8841,-0.5133 0.4677,0 0.8388,0.193 1.1183,0.5791 0.2795,0.3863 0.4167,0.9048 0.4167,1.5502 v 13.5752 z m 22.3271,0 h 3.2935 l 7.9591,-19.5469 h -4.2389 l -1.5653,3.8424 h -7.5016 l -1.5349,-3.8424 h -4.2183 z m 1.6619,-6.4038 -2.3023,-5.7634 h 4.6505 z m 33.5086,6.4038 h 4.1168 v -19.5469 h -4.0762 l -8.9757,12.6553 v -12.6553 h -4.208 v 19.5469 h 4.1573 l 8.9858,-12.5638 z m 16.1723,0 h 4.2083 v -8.2741 h 0.0609 l 6.5157,8.2741 h 5.1333 l -7.4305,-9.3515 7.7355,-10.1954 h -5.0876 l -6.8664,9.1278 h -0.0609 v -9.1278 h -4.2083 z m 24.8275,-9.7685 c 0,2.8919 0.9555,5.2758 2.8667,7.1611 1.9108,1.8806 4.1777,2.8211 6.7952,2.8211 2.9021,0 5.2959,-0.9454 7.1915,-2.8361 1.8958,-1.8958 2.8462,-4.2845 2.8462,-7.1713 0,-2.8715 -0.9402,-5.2555 -2.8156,-7.151 -1.8754,-1.8958 -4.2389,-2.8463 -7.0849,-2.8463 -2.8514,0 -5.1942,0.9454 -7.0393,2.831 -1.8397,1.8856 -2.7598,4.2846 -2.7598,7.1915 z m 9.8702,6.0789 c -1.6418,0.03 -2.963,-0.5338 -3.9693,-1.6977 -1.0063,-1.1639 -1.5095,-2.6631 -1.5095,-4.498 0,-1.7382 0.5134,-3.1765 1.5398,-4.32 1.0219,-1.1435 2.3176,-1.7127 3.8832,-1.7127 1.6415,0 2.9681,0.5641 3.9795,1.6923 1.0114,1.1234 1.5146,2.6124 1.5146,4.4572 0,1.8195 -0.493,3.2783 -1.484,4.3812 -0.9912,1.103 -2.3076,1.6671 -3.9543,1.6977 z m 19.5775,3.6896 h 3.7508 l 3.1258,-13.326 3.2629,13.326 h 2.7037 l 3.2428,-13.3869 3.2171,13.3869 h 3.7205 l -4.7013,-19.5469 h -3.939 l -2.9021,11.9843 -2.8766,-11.9843 h -3.9847 z m 44.6542,-1.7584 -2.6224,-2.8769 c -1.3875,0.8133 -2.3887,1.2201 -2.9987,1.2201 -0.4726,0 -0.8793,-0.178 -1.2198,-0.5287 -0.3404,-0.3506 -0.5082,-0.7673 -0.5082,-1.2503 0,-0.9604 0.8742,-1.7941 2.6226,-2.5056 1.2807,-0.5488 2.2515,-1.0468 2.912,-1.4893 0.6608,-0.4419 1.2147,-1.052 1.662,-1.8397 0.4473,-0.7826 0.6709,-1.6316 0.6709,-2.5464 0,-1.682 -0.6811,-3.1408 -2.0381,-4.3809 -1.3569,-1.2453 -2.963,-1.8655 -4.8129,-1.8655 -2.033,0 -4.0354,0.9556 -6.0177,2.8667 l 2.77,3.2323 c 1.2501,-1.2807 2.414,-1.921 3.5068,-1.921 0.5082,0 0.9963,0.2236 1.4638,0.6707 0.4728,0.4422 0.7064,0.9099 0.7064,1.4028 0,1.0063 -1.0775,1.9112 -3.2324,2.704 -1.2299,0.4572 -2.1041,0.8841 -2.6277,1.2756 -0.5233,0.3915 -0.9658,0.9655 -1.3212,1.7127 -0.3561,0.7523 -0.5338,1.5145 -0.5338,2.3023 0,1.7385 0.5692,3.1462 1.7025,4.2287 1.1336,1.0826 2.6175,1.6211 4.4524,1.6211 2.1702,0 3.9897,-0.6757 5.4635,-2.0327 z m 11.6592,1.7584 h 4.2083 v -8.2741 h 0.0609 l 6.5157,8.2741 h 5.1333 l -7.4305,-9.3515 7.7355,-10.1954 h -5.0876 l -6.8664,9.1278 h -0.0609 v -9.1278 h -4.2083 z m 34.0673,0 h 3.2936 l 7.9591,-19.5469 h -4.2389 l -1.5653,3.8424 h -7.5016 l -1.535,-3.8424 h -4.2182 z m 1.6622,-6.4038 -2.3026,-5.7634 h 4.6506 z"
           style="fill:#1a1a18;fill-opacity:1;fill-rule:nonzero;stroke:none"
           id="path68" />
        <path
           d="m -1048.3021,1574.0646 h 8.8681 v -2.185 h -6.6832 v -3.9583 h 6.6832 v -2.1849 h -6.6832 v -7.6598 h -2.1849 z m 18.4016,0 h 2.185 v -15.988 h -2.185 z m 12.2366,0 h 10.7961 l -7.6301,-13.8033 h 7.4759 v -2.1847 h -11.0274 l 7.63,13.803 h -7.2445 z m 24.0565,0 h 2.185 v -11.7213 c 0,-3.1873 -1.3281,-4.7809 -3.9841,-4.7809 -0.9213,0 -1.8295,0.2398 -2.7247,0.7197 l 1.0795,1.7736 c 0.7027,-0.2398 1.2767,-0.3597 1.7223,-0.3597 1.148,0 1.722,0.7711 1.722,2.3091 z m 12.511,-7.8826 c 0,2.3091 0.8697,4.284 2.609,5.9289 1.7436,1.645 3.8345,2.4679 6.2762,2.4679 2.3862,0 4.4382,-0.8311 6.1648,-2.4891 1.7221,-1.658 2.5832,-3.6244 2.5832,-5.9077 0,-2.412 -0.8524,-4.4513 -2.5531,-6.1177 -1.7054,-1.6665 -3.7917,-2.5019 -6.2677,-2.5019 -2.446,0 -4.5238,0.8396 -6.2374,2.5191 -1.7181,1.6793 -2.575,3.7143 -2.575,6.1005 z m 15.3199,-0.1245 c 0,1.7609 -0.6341,3.2432 -1.9063,4.4513 -1.2725,1.2039 -2.8403,1.8079 -4.6996,1.8079 -1.7651,0 -3.2774,-0.6125 -4.5368,-1.8422 -1.2595,-1.2251 -1.8893,-2.6989 -1.8893,-4.417 0,-1.7433 0.6468,-3.2173 1.9406,-4.4254 1.2937,-1.2036 2.8746,-1.8077 4.7508,-1.8077 1.7266,0 3.2134,0.6169 4.4643,1.8462 1.2507,1.2297 1.8763,2.6949 1.8763,4.3869 z m 10.6903,8.0071 h 9.8189 v -2.185 h -3.8299 v -13.803 h -2.1847 v 13.803 h -3.8043 z m 19.0698,0 h 8.8679 v -2.185 h -6.683 v -3.9583 h 6.683 v -2.1849 h -6.683 v -5.4751 h 6.683 v -2.1847 h -8.8679 z m 18.7871,0 h 3.4657 c 1.7266,0 3.1274,-0.4286 4.2111,-1.2853 1.084,-0.8569 1.6282,-1.9536 1.6282,-3.2901 0,-1.0667 -0.3472,-2.0135 -1.0454,-2.8318 -0.6981,-0.8181 -1.7864,-1.3967 -3.2643,-1.7309 l 4.6182,-6.8499 h -2.5064 l -4.434,6.5803 h -0.4881 v -6.5803 h -2.185 z m 2.185,-1.9279 v -5.5777 c 3.2216,-0.069 4.8322,0.8651 4.8322,2.8018 0,0.6769 -0.1885,1.2336 -0.5655,1.6664 -0.377,0.4284 -0.8782,0.724 -1.5035,0.8782 -0.6299,0.1542 -1.5508,0.2313 -2.7632,0.2313 z m 23.3237,2.5447 7.5442,-16.6048 h -2.2748 l -1.855,4.087 h -6.7901 l -1.8465,-4.087 h -2.2706 z m 0.009,-5.0207 -2.5616,-5.6722 h 5.1363 z m 17.0694,4.4039 h 3.2131 c 1.8162,0 3.2814,-0.4286 4.3954,-1.281 1.1137,-0.8527 1.6707,-1.9579 1.6707,-3.3245 0,-1.3708 -0.587,-2.5188 -1.7566,-3.4486 -1.1738,-0.9252 -2.9514,-1.3794 -5.3376,-1.3536 v -6.5803 h -2.185 z m 2.185,-1.9021 v -5.6035 c 1.6319,0.017 2.84,0.2483 3.6283,0.6982 0.7841,0.4456 1.1781,1.1653 1.1781,2.1549 0,0.7455 -0.2954,1.3878 -0.8909,1.9321 -0.5956,0.5439 -1.9024,0.8183 -3.9155,0.8183 z m 17.1161,1.9021 h 2.185 v -15.988 h -2.185 z m 18.6755,0.6168 7.5444,-16.6048 h -2.2748 l -1.855,4.087 h -6.7904 l -1.8464,-4.087 h -2.2706 z m 0.009,-5.0207 -2.5619,-5.6722 h 5.1366 z"
           style="fill:#1a1a18;fill-opacity:1;fill-rule:nonzero;stroke:none"
           id="path70" />
      </g>
      <g
         id="g72">
        <path
           d="m -1203.7547,1689.8088 c 10.4111,0 18.851,-8.4399 18.851,-18.8512 0,-10.4111 -8.4399,-18.851 -18.851,-18.851 -10.4111,0 -18.8512,8.4399 -18.8512,18.851 0,10.4113 8.4401,18.8512 18.8512,18.8512 z m -89.4716,-69.1571 c 0,-0.082 -0.014,-0.1602 -0.017,-0.2424 -0.01,-0.1754 -0.01,-0.3489 -0.013,-0.5241 -0.041,-1.1208 -0.066,-2.2459 -0.066,-3.3769 0,-19.9973 4.2854,-35.1071 10.8045,-47.2519 12.7862,-27.6015 34.6561,-49.375 52.9211,-64.1211 -50.1706,57.9739 -1.9936,155.7641 84.9002,138.4784 -0.045,0.016 -0.1426,0.022 -0.2851,0.019 14.6968,-0.9669 28.4042,-5.7577 40.2349,-13.4311 l 0.013,-0.092 c -6.597,45.9023 -46.0788,81.1811 -93.8069,81.1811 -28.1506,0 -53.4294,-12.2765 -70.7868,-31.7636 36.4116,-1.7853 49.8566,-39.8276 27.6957,-67.7251 5.8901,37.7918 -11.9217,53.9844 -32.5588,61.805 -11.226,-14.8525 -18.1828,-33.1118 -19.0366,-52.9549 z m 188.6919,7.9974 h 0.01 c -0.03,0.2322 -0.066,0.4624 -0.097,0.694 0.031,-0.2302 0.061,-0.4604 0.091,-0.6911"
           style="fill:#fbdeeb;fill-opacity:1;fill-rule:evenodd;stroke:none"
           id="path74" />
        <path
           d="m -1221.1228,1498.7081 c 0.01,-0.021 0.016,-0.043 0.025,-0.064 0.016,-0.024 0.033,-0.047 0.049,-0.071 -0.6211,2.2309 -5.6013,20.4945 -4.036,27.0326 l 0.081,-0.024 -0.035,0.2208 0.1026,0.4723 c 2.7729,12.7689 5.8048,17.0271 18.5973,22.8773 l 0.03,0.014 0.03,0.013 c 5.2435,2.238 11.7323,2.8775 17.3653,2.8775 l 29.38,0.8025 c 13.7823,0 24.8964,10.9584 25.8057,25.6028 l -62.0322,-0.1985 c -0.1948,0 -0.3898,0 -0.5848,-0.01 -0.061,0 -0.1219,0 -0.1831,-0.01 -0.1398,0 -0.2798,-0.01 -0.4196,-0.016 -0.064,0 -0.1278,-0.01 -0.1919,-0.01 -0.1491,-0.01 -0.2985,-0.018 -0.4476,-0.029 -0.046,0 -0.091,-0.01 -0.1374,-0.01 -0.1908,-0.015 -0.3816,-0.032 -0.5718,-0.051 -0.046,0 -0.092,-0.01 -0.138,-0.015 -0.1474,-0.016 -0.2948,-0.033 -0.442,-0.051 -0.063,-0.01 -0.1264,-0.016 -0.1893,-0.025 -0.1352,-0.018 -0.2699,-0.037 -0.4045,-0.057 -0.059,-0.01 -0.1174,-0.017 -0.1758,-0.026 -0.1774,-0.028 -0.3546,-0.057 -0.5312,-0.089 -0.014,0 -0.029,-0.01 -0.043,-0.01 -0.1806,-0.033 -0.3606,-0.067 -0.5403,-0.1046 -0.06,-0.012 -0.1202,-0.025 -0.1803,-0.038 -0.1298,-0.027 -0.2594,-0.056 -0.3886,-0.085 -0.063,-0.014 -0.127,-0.029 -0.1902,-0.044 -0.1355,-0.032 -0.2708,-0.066 -0.4057,-0.1 -0.049,-0.012 -0.098,-0.024 -0.1474,-0.037 -0.1783,-0.046 -0.3557,-0.094 -0.5326,-0.1449 -0.047,-0.013 -0.094,-0.028 -0.1412,-0.041 -0.1341,-0.039 -0.2676,-0.079 -0.4011,-0.1202 -0.064,-0.02 -0.1287,-0.04 -0.1927,-0.061 -0.1197,-0.038 -0.2387,-0.077 -0.3578,-0.1168 -0.062,-0.02 -0.1236,-0.041 -0.1854,-0.062 -0.1485,-0.051 -0.2965,-0.1037 -0.4441,-0.1573 -0.028,-0.01 -0.056,-0.02 -0.082,-0.029 -0.1681,-0.062 -0.3356,-0.1261 -0.5023,-0.1919 -0.062,-0.025 -0.1247,-0.05 -0.187,-0.075 -0.1129,-0.046 -0.2257,-0.092 -0.3379,-0.1389 -0.066,-0.028 -0.1316,-0.055 -0.197,-0.083 -0.1143,-0.049 -0.228,-0.1 -0.3416,-0.1503 -0.056,-0.025 -0.1131,-0.05 -0.1695,-0.076 -0.1599,-0.073 -0.3195,-0.1471 -0.4777,-0.2236 -0.054,-0.026 -0.1077,-0.054 -0.1618,-0.08 -0.1123,-0.055 -0.2243,-0.1105 -0.3357,-0.1672 -0.067,-0.034 -0.134,-0.069 -0.2006,-0.1037 -0.1,-0.052 -0.1985,-0.1046 -0.2971,-0.1574 -0.066,-0.035 -0.1321,-0.071 -0.1976,-0.1068 -0.1134,-0.062 -0.2259,-0.1259 -0.3384,-0.1897 -0.062,-0.036 -0.1248,-0.071 -0.1869,-0.1068 -0.1326,-0.077 -0.2647,-0.1554 -0.396,-0.2348 -0.067,-0.041 -0.1337,-0.082 -0.2004,-0.1235 -0.091,-0.056 -0.1808,-0.1126 -0.271,-0.1696 -0.069,-0.044 -0.1371,-0.088 -0.2057,-0.132 -0.09,-0.058 -0.1786,-0.1177 -0.2676,-0.1766 -0.064,-0.043 -0.1279,-0.085 -0.1911,-0.1279 -0.138,-0.094 -0.2755,-0.1888 -0.4116,-0.2857 -0.064,-0.045 -0.127,-0.092 -0.1902,-0.1378 -0.085,-0.062 -0.1695,-0.1227 -0.2537,-0.1854 -0.07,-0.052 -0.1395,-0.1046 -0.2089,-0.157 -0.076,-0.058 -0.1519,-0.1165 -0.2276,-0.1752 -0.07,-0.054 -0.1386,-0.1074 -0.2075,-0.1618 -0.079,-0.063 -0.1568,-0.1262 -0.235,-0.1897 -0.1023,-0.083 -0.2041,-0.1672 -0.305,-0.252 -0.086,-0.072 -0.1718,-0.1437 -0.2568,-0.2168 -0.07,-0.06 -0.1392,-0.1219 -0.2087,-0.1832 -0.067,-0.059 -0.1332,-0.1176 -0.1995,-0.1768 -0.07,-0.063 -0.1395,-0.1262 -0.2087,-0.19 -0.065,-0.059 -0.1284,-0.1193 -0.1924,-0.1791 -0.068,-0.064 -0.1369,-0.1281 -0.2047,-0.193 -0.071,-0.068 -0.1414,-0.1378 -0.2117,-0.207 -0.1137,-0.1114 -0.226,-0.2239 -0.3374,-0.3373 -0.057,-0.058 -0.1145,-0.1165 -0.1712,-0.1752 -0.07,-0.072 -0.1389,-0.146 -0.2078,-0.2191 -0.054,-0.057 -0.1074,-0.1151 -0.161,-0.1729 -0.069,-0.075 -0.1377,-0.1497 -0.2058,-0.2251 -0.05,-0.055 -0.099,-0.1117 -0.1488,-0.1675 -0.1309,-0.148 -0.2599,-0.2974 -0.3875,-0.4479 -0.04,-0.048 -0.082,-0.096 -0.1224,-0.1448 -0.068,-0.082 -0.1358,-0.1653 -0.203,-0.2483 -0.045,-0.056 -0.091,-0.1123 -0.1361,-0.1687 -0.066,-0.083 -0.132,-0.167 -0.1972,-0.2509 -0.044,-0.056 -0.086,-0.1125 -0.1296,-0.1686 -0.066,-0.086 -0.1321,-0.1727 -0.1967,-0.26 -0.025,-0.033 -0.049,-0.066 -0.073,-0.1 -0.1355,-0.1842 -0.2684,-0.3705 -0.3991,-0.5581 -0.035,-0.051 -0.071,-0.1018 -0.1063,-0.1528 -0.063,-0.092 -0.125,-0.1848 -0.1868,-0.2778 -0.037,-0.055 -0.073,-0.1105 -0.1094,-0.1661 -0.061,-0.093 -0.1225,-0.1877 -0.1826,-0.2821 -0.031,-0.049 -0.061,-0.098 -0.092,-0.1471 -1.8281,-2.9202 -3.3211,-7.9276 -4.6749,-11.0922 -0.9431,-2.2042 -1.8357,-4.4292 -2.7317,-6.6529 l -4.1639,-10.334 -0.8135,11.1118 c -0.1417,1.9386 -0.2134,3.8823 -0.2134,5.8263 0,9.9454 1.8527,19.7751 5.5165,29.0228 l 0.013,0.034 c 0.1984,0.5 0.4019,0.998 0.6106,1.4935 0.05,0.1188 0.1009,0.237 0.1513,0.3552 0.1951,0.4564 0.3935,0.9111 0.5967,1.3638 0.058,0.1295 0.1171,0.2588 0.1761,0.388 0.1987,0.4357 0.4013,0.8697 0.6077,1.302 0.062,0.129 0.1233,0.2579 0.1857,0.3866 0.2143,0.4417 0.4328,0.8813 0.6553,1.319 0.07,0.1375 0.1401,0.2755 0.2109,0.4127 0.2359,0.4572 0.4754,0.9128 0.7203,1.3652 0.068,0.1255 0.1372,0.2506 0.2058,0.3758 0.224,0.4091 0.4516,0.8161 0.6826,1.2212 0.08,0.1406 0.161,0.2806 0.2421,0.4207 0.2273,0.3917 0.4581,0.7815 0.6916,1.1695 0.084,0.1392 0.1676,0.279 0.2526,0.4176 0.2432,0.3985 0.491,0.7943 0.7415,1.188 0.1095,0.1721 0.2195,0.3438 0.33,0.515 0.25,0.3867 0.5029,0.7716 0.7597,1.1537 0.1,0.1483 0.2007,0.296 0.3013,0.4437 0.2393,0.3512 0.4813,0.7001 0.726,1.0474 0.1116,0.1584 0.2242,0.3163 0.337,0.4739 0.2418,0.3373 0.4867,0.6727 0.7339,1.006 0.1372,0.1857 0.2752,0.3708 0.4144,0.5551 0.2344,0.3106 0.4711,0.6193 0.7101,0.9263 0.1661,0.2135 0.3331,0.4261 0.5014,0.6378 0.2447,0.3076 0.4907,0.6143 0.7396,0.9182 0.1454,0.1777 0.292,0.354 0.4388,0.53 0.2401,0.2883 0.4827,0.5749 0.7268,0.8598 0.1528,0.1783 0.3062,0.3557 0.4606,0.5326 0.2424,0.2772 0.487,0.5525 0.7334,0.8263 0.2162,0.2407 0.4339,0.4799 0.6531,0.718 0.1939,0.2104 0.3886,0.4196 0.5845,0.6279 0.2344,0.2492 0.4705,0.4969 0.7081,0.7433 0.2103,0.2174 0.4215,0.4339 0.6344,0.6494 0.2154,0.2182 0.4325,0.4357 0.6508,0.6514 0.233,0.2307 0.4674,0.4597 0.7036,0.6874 0.261,0.2514 0.5244,0.5011 0.7888,0.7495 0.1687,0.1584 0.3382,0.3163 0.5086,0.4733 0.2959,0.273 0.5944,0.5437 0.8943,0.8122 0.1454,0.1298 0.2911,0.2588 0.4371,0.3877 0.3098,0.273 0.6214,0.5437 0.9354,0.8119 0.1537,0.1312 0.3082,0.2616 0.4629,0.3915 0.3753,0.3152 0.7532,0.6273 1.1342,0.9357 0.1525,0.1233 0.3047,0.2466 0.4581,0.3688 0.3489,0.278 0.7001,0.5524 1.0536,0.8246 0.1145,0.088 0.229,0.176 0.3438,0.2636 0.3623,0.2761 0.7274,0.5488 1.0945,0.8183 0.1074,0.079 0.2151,0.1574 0.3231,0.2356 0.3751,0.2727 0.7518,0.5423 1.1316,0.8082 0.082,0.057 0.1644,0.1139 0.2466,0.1709 0.5434,0.3773 1.0917,0.748 1.6441,1.1114 0.086,0.057 0.1713,0.1131 0.2571,0.1693 0.3983,0.2596 0.7988,0.5153 1.2016,0.7676 0.1,0.062 0.199,0.1247 0.2988,0.1865 0.4025,0.25 0.8076,0.4964 1.2144,0.739 0.1,0.059 0.199,0.1176 0.2985,0.1766 0.4118,0.2429 0.8257,0.483 1.2421,0.7183 11.8497,6.7037 25.1442,10.1747 38.7564,10.1747 13.3577,0 26.4149,-3.3418 38.1045,-9.8099 l 1.4799,-0.8186 -0.1788,-1.9196 c -0.067,-16.6593 -13.7078,-30.259 -30.3821,-30.259 h -34.2382 c -1.9641,0 -3.5802,-1.6163 -3.5802,-3.5802 0,-1.9638 1.6161,-3.5801 3.5802,-3.5801 h 47.8794 v -4.9465 c 0,-18.0179 -14.7246,-32.7427 -32.7427,-32.7427 h -9.9785 c -2.8718,0 -5.2311,-2.359 -5.2311,-5.2311 v -11.0197 c 0,-1.1554 -0.083,-2.292 -0.2395,-3.4061 32.0729,12.6868 72.6812,48.0895 72.6812,89.7798 0,4.6511 -0.3413,9.2217 -0.9885,13.6933 -13.3032,8.6287 -28.98,13.6128 -45.7682,13.6128 -48.1473,0 -87.1781,-40.9569 -87.1781,-91.4797 0,-13.0572 2.6119,-25.4729 7.3103,-36.71 l -9e-4,5e-4 v 0 c 2.2212,-5.3118 6.3947,-11.6824 9.2577,-16.9126"
           style="fill:#e4a8c1;fill-opacity:1;fill-rule:evenodd;stroke:none"
           id="path76" />
      </g>
    </g>
    <g
       id="g78">
      <g
         id="g80">
        <path
           d="m -1264.7877,1158.5537 h 2.4004 l 5.8005,-14.2458 h -3.0892 l -1.1407,2.8004 h -5.4674 l -1.1186,-2.8004 h -3.0744 z m 1.2115,-4.667 -1.6781,-4.2006 h 3.3891 z m 26.6658,1.5781 -2.0412,-1.9114 c -0.4258,0.737 -0.9556,1.2889 -1.5852,1.652 -0.6261,0.3665 -1.2855,0.5482 -1.9743,0.5482 -1.1149,0 -2.0818,-0.4223 -2.9004,-1.2705 -0.8223,-0.8447 -1.2334,-1.8411 -1.2334,-2.9931 0,-1.2223 0.4111,-2.2558 1.2334,-3.1076 0.8186,-0.8481 1.8077,-1.2741 2.967,-1.2741 0.6299,0 1.2337,0.1593 1.8187,0.4776 0.5817,0.3186 1.0483,0.915 1.404,1.7892 h -3.3783 v 2.778 h 6.5787 v -1.8445 c 0,-0.9482 -0.326,-1.967 -0.978,-3.0561 -0.6483,-1.0924 -1.5075,-1.8853 -2.5707,-2.389 -1.063,-0.5037 -2.1371,-0.7554 -3.2225,-0.7554 -1.9669,0 -3.6263,0.7109 -4.9782,2.137 -1.3521,1.4261 -2.0299,3.1893 -2.0299,5.2895 0,1.989 0.6962,3.6892 2.0889,5.1006 1.3929,1.4111 3.0671,2.1186 5.0304,2.1186 2.5001,0 4.4263,-1.0964 5.771,-3.289 z m 18.4535,3.0889 h 3.0005 v -14.2458 h -2.9707 l -6.5415,9.2231 v -9.2231 h -3.0668 v 14.2458 h 3.0297 l 6.5488,-9.1565 z m 11.5643,0 h 3.0671 v -14.2458 h -3.0671 z m 11.8051,0 h 8.0229 v -2.8225 h -4.9561 v -2.8669 h 4.9561 v -2.778 h -4.9561 v -2.9559 h 4.9561 v -2.8225 h -8.0229 z m 24.4766,-1.2815 -1.9114,-2.0965 c -1.0111,0.5927 -1.741,0.8889 -2.1855,0.8889 -0.3444,0 -0.6406,-0.1295 -0.8889,-0.3852 -0.2481,-0.2554 -0.3702,-0.5593 -0.3702,-0.9111 0,-0.7001 0.6369,-1.3076 1.9111,-1.8261 0.9334,-0.3999 1.641,-0.7631 2.1226,-1.0853 0.4813,-0.3223 0.8852,-0.7668 1.2109,-1.3408 0.326,-0.5707 0.489,-1.1892 0.489,-1.8559 0,-1.226 -0.4963,-2.289 -1.4851,-3.1929 -0.9893,-0.9074 -2.1597,-1.3592 -3.5078,-1.3592 -1.4817,0 -2.941,0.6962 -4.3858,2.0888 l 2.0188,2.3559 c 0.9111,-0.9335 1.7595,-1.4 2.5558,-1.4 0.3704,0 0.7259,0.1629 1.0666,0.4889 0.3447,0.322 0.5151,0.6631 0.5151,1.0222 0,0.7333 -0.7852,1.3927 -2.3559,1.9707 -0.8963,0.3333 -1.5335,0.6445 -1.9148,0.9297 -0.3815,0.2852 -0.7038,0.7036 -0.9632,1.2481 -0.2594,0.5482 -0.3889,1.1038 -0.3889,1.6781 0,1.2668 0.415,2.293 1.2407,3.0818 0.826,0.7889 1.9077,1.1815 3.2448,1.1815 1.5818,0 2.9078,-0.4926 3.9821,-1.4816 z m 8.6083,1.2815 h 10.3343 l -6.4375,-11.3122 h 6.2155 v -2.9336 h -10.957 l 6.438,11.3122 h -5.5933 z m 18.6982,0 h 3.067 v -6.0301 h 0.044 l 4.7488,6.0301 h 3.7409 l -5.4153,-6.8153 5.6378,-7.4305 h -3.708 l -5.0042,6.6526 h -0.044 v -6.6526 h -3.067 z m 24.8283,0 h 2.4004 l 5.8006,-14.2458 h -3.0892 l -1.1407,2.8004 h -5.4675 l -1.1185,-2.8004 h -3.0745 z m 1.2116,-4.667 -1.6781,-4.2006 h 3.3891 z m 30.3845,4.667 h 3.0447 v -10.0936 c 0,-1.311 -0.3631,-2.3632 -1.0854,-3.1595 -0.7259,-0.7963 -1.6741,-1.1925 -2.8482,-1.1925 -0.8447,0 -1.6041,0.248 -2.2745,0.748 -0.6704,0.5001 -1.1852,1.2631 -1.5483,2.293 l 2.2337,1.6925 v -0.044 c 0.015,-0.01 0.089,-0.1669 0.2185,-0.4742 0.1296,-0.3113 0.2963,-0.5927 0.4964,-0.8408 0.1961,-0.2483 0.411,-0.3741 0.6443,-0.3741 0.3407,0 0.6111,0.1406 0.815,0.422 0.2038,0.2818 0.3038,0.6594 0.3038,1.1299 v 9.8935 z m 16.272,0 h 2.4004 l 5.8005,-14.2458 h -3.0892 l -1.1409,2.8004 h -5.4672 l -1.1185,-2.8004 h -3.0745 z m 1.2113,-4.667 -1.6779,-4.2006 h 3.3892 z m 24.421,4.667 h 3.0002 v -14.2458 h -2.9704 l -6.5415,9.2231 v -9.2231 h -3.0668 v 14.2458 h 3.0296 l 6.5489,-9.1565 z m 11.7865,0 h 3.0671 v -6.0301 h 0.044 l 4.7486,6.0301 h 3.7411 l -5.4153,-6.8153 5.6376,-7.4305 h -3.708 l -5.004,6.6526 h -0.044 v -6.6526 h -3.0671 z m 18.0946,-7.1192 c 0,2.1078 0.6962,3.8449 2.0889,5.2191 1.3929,1.3706 3.045,2.0557 4.9524,2.0557 2.1152,0 3.8597,-0.6888 5.2413,-2.0667 1.3816,-1.3816 2.0744,-3.1227 2.0744,-5.2265 0,-2.0929 -0.6855,-3.8302 -2.052,-5.2118 -1.3669,-1.3816 -3.0892,-2.0741 -5.1636,-2.0741 -2.0781,0 -3.7854,0.6888 -5.1302,2.063 -1.3408,1.3743 -2.0112,3.1227 -2.0112,5.2413 z m 7.1932,4.4303 c -1.1965,0.022 -2.1594,-0.389 -2.8927,-1.2374 -0.7336,-0.8481 -1.1001,-1.9408 -1.1001,-3.278 0,-1.2668 0.3739,-2.315 1.1222,-3.1484 0.7444,-0.8337 1.6889,-1.2484 2.8298,-1.2484 1.1965,0 2.1634,0.4113 2.9004,1.2334 0.737,0.8186 1.1038,1.904 1.1038,3.2485 0,1.326 -0.3591,2.3893 -1.0817,3.1929 -0.7222,0.8039 -1.6815,1.215 -2.8817,1.2374 z m 14.2682,2.6889 h 2.7338 l 2.2779,-9.7121 2.378,9.7121 h 1.9706 l 2.363,-9.7563 2.3448,9.7563 h 2.7113 l -3.4262,-14.2458 h -2.8706 l -2.1153,8.7341 -2.0962,-8.7341 h -2.9041 z m 32.544,-1.2815 -1.9111,-2.0965 c -1.0114,0.5927 -1.741,0.8889 -2.1855,0.8889 -0.3444,0 -0.6409,-0.1295 -0.8889,-0.3852 -0.2484,-0.2554 -0.3705,-0.5593 -0.3705,-0.9111 0,-0.7001 0.6372,-1.3076 1.9114,-1.8261 0.9334,-0.3999 1.6407,-0.7631 2.1223,-1.0853 0.4816,-0.3223 0.8852,-0.7668 1.2112,-1.3408 0.326,-0.5707 0.489,-1.1892 0.489,-1.8559 0,-1.226 -0.4964,-2.289 -1.4854,-3.1929 -0.989,-0.9074 -2.1594,-1.3592 -3.5076,-1.3592 -1.4816,0 -2.9412,0.6962 -4.3857,2.0888 l 2.0185,2.3559 c 0.9114,-0.9335 1.7595,-1.4 2.556,-1.4 0.3705,0 0.726,0.1629 1.0667,0.4889 0.3447,0.322 0.5151,0.6631 0.5151,1.0222 0,0.7333 -0.7852,1.3927 -2.3559,1.9707 -0.8963,0.3333 -1.5335,0.6445 -1.9151,0.9297 -0.3815,0.2852 -0.7038,0.7036 -0.9629,1.2481 -0.2594,0.5482 -0.3889,1.1038 -0.3889,1.6781 0,1.2668 0.4147,2.293 1.2407,3.0818 0.826,0.7889 1.9077,1.1815 3.2448,1.1815 1.5817,0 2.9078,-0.4926 3.9818,-1.4816 z m 8.4975,1.2815 h 3.0668 v -6.0301 h 0.0445 l 4.7486,6.0301 h 3.7411 l -5.4153,-6.8153 5.6376,-7.4305 h -3.7078 l -5.0042,6.6526 h -0.0445 v -6.6526 h -3.0668 z m 24.8283,0 h 2.4004 l 5.8005,-14.2458 h -3.0892 l -1.1409,2.8004 h -5.4672 l -1.1185,-2.8004 h -3.0745 z m 1.2113,-4.667 -1.6779,-4.2006 h 3.3891 z"
           style="fill:#1a1a18;fill-opacity:1;fill-rule:nonzero;stroke:none"
           id="path82" />
        <path
           d="m -1174.8923,1129.5031 h 6.463 v -1.5922 h -4.8708 v -2.8851 h 4.8708 v -1.5922 h -4.8708 v -5.5826 h -1.5922 z m 13.411,0 h 1.5925 v -11.6521 h -1.5925 z m 8.9183,0 h 7.8679 l -5.5607,-10.0599 h 5.4484 v -1.5922 h -8.0365 l 5.5605,10.0599 h -5.2796 z m 17.5323,0 h 1.5925 v -8.5425 c 0,-2.323 -0.968,-3.4843 -2.9035,-3.4843 -0.6715,0 -1.3334,0.1749 -1.986,0.5247 l 0.7869,1.2926 c 0.512,-0.1749 0.9304,-0.2625 1.2552,-0.2625 0.8368,0 1.2549,0.5621 1.2549,1.6829 z m 9.1182,-5.745 c 0,1.683 0.6339,3.1224 1.9015,4.3212 1.2708,1.199 2.7944,1.7986 4.574,1.7986 1.739,0 3.2346,-0.6058 4.4929,-1.8142 1.2552,-1.2081 1.8828,-2.6413 1.8828,-4.3056 0,-1.7577 -0.6214,-3.2439 -1.861,-4.4583 -1.2427,-1.2146 -2.7632,-1.8235 -4.5677,-1.8235 -1.7827,0 -3.297,0.612 -4.5459,1.836 -1.2521,1.2237 -1.8766,2.7068 -1.8766,4.4458 z m 11.1651,-0.09 c 0,1.2833 -0.462,2.3635 -1.3892,3.244 -0.9275,0.8773 -2.0702,1.3175 -3.4251,1.3175 -1.2864,0 -2.3888,-0.4464 -3.3066,-1.3425 -0.9179,-0.8929 -1.3768,-1.9669 -1.3768,-3.219 0,-1.2708 0.4714,-2.3448 1.4142,-3.2252 0.9431,-0.8774 2.0951,-1.3176 3.4628,-1.3176 1.258,0 2.3414,0.4496 3.2533,1.3456 0.9116,0.8961 1.3674,1.9639 1.3674,3.1972 z m 7.7911,5.8354 h 7.1563 v -1.5922 h -2.7913 v -10.0599 h -1.5922 v 10.0599 h -2.7728 z m 13.8985,0 h 6.463 v -1.5922 h -4.8708 v -2.8851 h 4.8708 v -1.5922 h -4.8708 v -3.9904 h 4.8708 v -1.5922 h -6.463 z m 13.6919,0 h 2.526 c 1.2583,0 2.2793,-0.3121 3.069,-0.9365 0.79,-0.6245 1.1866,-1.4239 1.1866,-2.3982 0,-0.7772 -0.2528,-1.4672 -0.7619,-2.0636 -0.5089,-0.5964 -1.302,-1.0179 -2.3789,-1.2614 l 3.3656,-4.9924 h -1.8266 l -3.2313,4.7957 h -0.356 v -4.7957 h -1.5925 z m 1.5925,-1.4051 v -4.0649 c 2.348,-0.05 3.5218,0.6307 3.5218,2.0418 0,0.4932 -0.1375,0.8991 -0.4122,1.2146 -0.2747,0.3121 -0.64,0.5276 -1.0959,0.6401 -0.4589,0.1123 -1.1301,0.1684 -2.0137,0.1684 z m 16.9985,1.8547 5.4984,-12.1017 h -1.658 l -1.3518,2.9787 h -4.9488 l -1.3458,-2.9787 h -1.6546 z m 0.01,-3.6593 -1.8669,-4.1337 h 3.7434 z m 12.4401,3.2097 h 2.3417 c 1.3238,0 2.3916,-0.3121 3.2034,-0.9334 0.8119,-0.6214 1.2178,-1.427 1.2178,-2.4228 0,-0.9992 -0.4278,-1.836 -1.2801,-2.5135 -0.8555,-0.6743 -2.1512,-1.0054 -3.8903,-0.9867 v -4.7957 h -1.5925 z m 1.5925,-1.3861 v -4.0839 c 1.1894,0.012 2.0699,0.1811 2.6444,0.5088 0.5715,0.3249 0.8587,0.8493 0.8587,1.5704 0,0.5434 -0.2155,1.0117 -0.6495,1.4083 -0.4339,0.3965 -1.3861,0.5964 -2.8536,0.5964 z m 12.4744,1.3861 h 1.5922 v -11.6521 h -1.5922 z m 13.6111,0.4496 5.4981,-12.1017 h -1.658 l -1.3518,2.9787 h -4.9487 l -1.3456,-2.9787 h -1.6549 z m 0.01,-3.6593 -1.8672,-4.1337 h 3.7434 z"
           style="fill:#1a1a18;fill-opacity:1;fill-rule:nonzero;stroke:none"
           id="path84" />
      </g>
      <path
         d="m -1099.2356,1354.4223 c 9.0881,0 16.4554,-7.3672 16.4554,-16.4554 0,-9.0878 -7.3673,-16.4554 -16.4554,-16.4554 -9.0879,0 -16.4551,7.3676 -16.4551,16.4554 0,9.0882 7.3672,16.4554 16.4551,16.4554 z m -78.1005,-60.368 c 0,-0.071 -0.012,-0.1397 -0.015,-0.2117 -0.01,-0.1531 -0.01,-0.3045 -0.011,-0.4573 -0.036,-0.9785 -0.058,-1.9604 -0.058,-2.9477 0,-17.4561 3.7409,-30.6457 9.4314,-41.2467 11.1615,-24.0936 30.252,-43.1002 46.1954,-55.972 -43.7944,50.606 -1.7399,135.968 74.1104,120.8792 -0.039,0.014 -0.1244,0.019 -0.2489,0.016 12.8291,-0.8439 24.7944,-5.0258 35.1216,-11.7241 l 0.012,-0.081 c -5.7586,40.0686 -40.2228,70.8639 -81.885,70.8639 -24.5732,0 -46.6393,-10.7164 -61.7907,-27.7271 31.7843,-1.5582 43.5203,-34.7658 24.1758,-59.1177 5.1415,32.9888 -10.4065,47.1235 -28.4207,53.9501 -9.7994,-12.9648 -15.872,-28.9037 -16.6173,-46.2248 z m 164.7111,6.9812 h 0.01 c -0.026,0.2027 -0.057,0.4034 -0.084,0.6055 0.027,-0.2007 0.054,-0.4017 0.079,-0.6029"
         style="fill:#fbdeeb;fill-opacity:1;fill-rule:evenodd;stroke:none"
         id="path86" />
      <path
         d="m -1114.3964,1187.6085 c 0.01,-0.019 0.014,-0.037 0.022,-0.056 0.014,-0.021 0.029,-0.041 0.043,-0.062 -0.542,1.9471 -4.8892,17.89 -3.5229,23.597 l 0.07,-0.021 -0.03,0.1928 0.089,0.4121 c 2.4205,11.1464 5.0672,14.8632 16.234,19.9698 l 0.026,0.012 0.027,0.011 c 4.5771,1.9536 10.2413,2.5118 15.1583,2.5118 l 25.6458,0.7004 c 12.0309,0 21.7324,9.5658 22.5261,22.3492 l -54.1482,-0.1735 c -0.1704,0 -0.3405,0 -0.5105,-0.01 -0.053,0 -0.1066,0 -0.1599,0 -0.1222,0 -0.2444,-0.01 -0.3663,-0.014 -0.056,0 -0.1116,-0.01 -0.1675,-0.01 -0.1304,-0.01 -0.2605,-0.016 -0.3906,-0.025 -0.04,0 -0.08,-0.01 -0.1202,-0.01 -0.1664,-0.013 -0.3328,-0.028 -0.4992,-0.045 -0.04,0 -0.08,-0.01 -0.1204,-0.013 -0.1287,-0.014 -0.2574,-0.029 -0.3856,-0.045 -0.055,-0.01 -0.1105,-0.014 -0.1655,-0.022 -0.1179,-0.015 -0.2356,-0.032 -0.3532,-0.05 -0.051,-0.01 -0.1023,-0.015 -0.1533,-0.023 -0.1548,-0.024 -0.3096,-0.05 -0.4638,-0.077 -0.013,0 -0.025,0 -0.038,-0.01 -0.1576,-0.029 -0.3146,-0.059 -0.4717,-0.091 -0.052,-0.011 -0.1049,-0.022 -0.1573,-0.033 -0.1134,-0.024 -0.2265,-0.049 -0.3393,-0.074 -0.056,-0.013 -0.1108,-0.026 -0.1661,-0.039 -0.1182,-0.028 -0.2361,-0.057 -0.3538,-0.087 -0.043,-0.011 -0.086,-0.021 -0.129,-0.033 -0.1553,-0.04 -0.3104,-0.082 -0.4648,-0.1264 -0.041,-0.012 -0.082,-0.024 -0.1231,-0.036 -0.117,-0.034 -0.2338,-0.069 -0.3503,-0.1046 -0.056,-0.017 -0.112,-0.035 -0.1681,-0.053 -0.1043,-0.033 -0.2084,-0.068 -0.3124,-0.1021 -0.054,-0.018 -0.1077,-0.036 -0.1616,-0.054 -0.1298,-0.044 -0.2591,-0.091 -0.3878,-0.1375 -0.024,-0.01 -0.049,-0.017 -0.072,-0.025 -0.1468,-0.054 -0.2928,-0.11 -0.4382,-0.1675 -0.055,-0.022 -0.1089,-0.044 -0.1633,-0.065 -0.099,-0.04 -0.197,-0.08 -0.2951,-0.1211 -0.058,-0.024 -0.1148,-0.048 -0.172,-0.073 -0.1,-0.043 -0.199,-0.087 -0.2982,-0.1313 -0.049,-0.022 -0.099,-0.043 -0.148,-0.066 -0.1395,-0.063 -0.2787,-0.1284 -0.417,-0.1953 -0.047,-0.023 -0.094,-0.047 -0.1411,-0.07 -0.098,-0.048 -0.1959,-0.096 -0.2931,-0.146 -0.059,-0.03 -0.1168,-0.06 -0.1752,-0.09 -0.087,-0.045 -0.1729,-0.091 -0.2591,-0.1374 -0.058,-0.031 -0.1154,-0.062 -0.1726,-0.093 -0.099,-0.054 -0.1973,-0.1097 -0.2954,-0.1655 -0.054,-0.031 -0.1089,-0.062 -0.163,-0.093 -0.1159,-0.067 -0.2313,-0.1355 -0.3458,-0.2049 -0.058,-0.035 -0.1165,-0.072 -0.1749,-0.1078 -0.079,-0.049 -0.1579,-0.098 -0.2364,-0.1479 -0.06,-0.038 -0.1199,-0.077 -0.1798,-0.1154 -0.078,-0.051 -0.1559,-0.1026 -0.2335,-0.1542 -0.056,-0.037 -0.1117,-0.074 -0.167,-0.1114 -0.1205,-0.082 -0.2404,-0.165 -0.3591,-0.2495 -0.056,-0.04 -0.1109,-0.08 -0.1662,-0.1204 -0.074,-0.054 -0.1479,-0.1072 -0.2213,-0.1616 -0.061,-0.045 -0.1216,-0.091 -0.1823,-0.1375 -0.067,-0.05 -0.1327,-0.1015 -0.1987,-0.1525 -0.061,-0.047 -0.1211,-0.094 -0.1812,-0.1414 -0.069,-0.055 -0.1369,-0.1103 -0.2052,-0.1656 -0.089,-0.072 -0.178,-0.146 -0.2662,-0.2199 -0.075,-0.063 -0.1499,-0.1256 -0.2242,-0.1894 -0.061,-0.053 -0.1216,-0.1063 -0.1822,-0.1596 -0.058,-0.051 -0.1163,-0.1029 -0.1741,-0.1548 -0.061,-0.055 -0.1219,-0.1099 -0.1823,-0.1655 -0.056,-0.052 -0.1119,-0.1043 -0.1678,-0.1565 -0.06,-0.056 -0.1196,-0.1117 -0.1785,-0.1684 -0.062,-0.06 -0.1236,-0.1204 -0.1852,-0.1808 -0.099,-0.097 -0.197,-0.1953 -0.2942,-0.2945 -0.05,-0.051 -0.1001,-0.1015 -0.1494,-0.1528 -0.061,-0.063 -0.1213,-0.1273 -0.1814,-0.1914 -0.047,-0.05 -0.094,-0.1003 -0.1406,-0.1508 -0.06,-0.065 -0.1202,-0.1306 -0.1797,-0.1964 -0.044,-0.049 -0.086,-0.098 -0.1298,-0.1463 -0.1143,-0.1292 -0.2271,-0.2593 -0.3382,-0.3911 -0.035,-0.042 -0.072,-0.084 -0.1072,-0.1265 -0.06,-0.071 -0.1182,-0.1443 -0.1771,-0.2165 -0.039,-0.049 -0.079,-0.098 -0.1185,-0.1474 -0.058,-0.073 -0.1154,-0.1455 -0.1724,-0.2189 -0.038,-0.049 -0.075,-0.098 -0.1131,-0.1471 -0.058,-0.075 -0.115,-0.1508 -0.1717,-0.227 -0.021,-0.029 -0.042,-0.058 -0.063,-0.087 -0.1182,-0.1607 -0.2345,-0.3234 -0.3484,-0.4873 -0.031,-0.045 -0.062,-0.089 -0.093,-0.1335 -0.055,-0.08 -0.1091,-0.161 -0.163,-0.2421 -0.032,-0.048 -0.064,-0.097 -0.096,-0.1451 -0.054,-0.082 -0.1069,-0.1638 -0.159,-0.2463 -0.027,-0.043 -0.054,-0.086 -0.081,-0.1284 -1.5957,-2.5489 -2.8987,-6.9202 -4.0808,-9.6826 -0.8232,-1.9242 -1.6024,-3.8662 -2.3845,-5.8074 l -3.6346,-9.0206 -0.7101,9.6995 c -0.1238,1.6923 -0.1865,3.3891 -0.1865,5.086 0,8.6814 1.6175,17.2618 4.8155,25.3343 l 0.012,0.029 c 0.1732,0.4365 0.351,0.8711 0.5332,1.3037 0.044,0.1037 0.088,0.2069 0.1321,0.3101 0.1701,0.3985 0.3433,0.7954 0.5208,1.1905 0.051,0.1128 0.1023,0.2257 0.1536,0.3385 0.1735,0.3804 0.3504,0.7594 0.5306,1.1364 0.054,0.1128 0.1075,0.2253 0.1619,0.3379 0.1871,0.3855 0.3781,0.769 0.5723,1.1511 0.061,0.1202 0.1222,0.2404 0.184,0.3603 0.2061,0.3991 0.415,0.7968 0.6287,1.1917 0.059,0.1097 0.1196,0.2188 0.1797,0.328 0.1956,0.3571 0.394,0.7126 0.5959,1.0661 0.07,0.1227 0.1406,0.2449 0.2114,0.3671 0.1982,0.3421 0.3994,0.6823 0.6035,1.021 0.073,0.1216 0.1463,0.2435 0.2206,0.3645 0.2123,0.3479 0.4283,0.6934 0.6471,1.0372 0.096,0.15 0.1916,0.2999 0.2883,0.4493 0.2183,0.3376 0.4388,0.6735 0.663,1.0072 0.087,0.1295 0.1752,0.2582 0.2631,0.3872 0.2089,0.3064 0.4201,0.6111 0.6335,0.9144 0.098,0.1381 0.1956,0.2761 0.2943,0.4136 0.2111,0.2945 0.4249,0.5871 0.6406,0.8782 0.1199,0.1619 0.2404,0.3237 0.3617,0.4844 0.2046,0.2713 0.4113,0.5406 0.6199,0.8088 0.1452,0.1862 0.2909,0.3719 0.4377,0.5567 0.2134,0.2684 0.4283,0.536 0.6457,0.8016 0.1267,0.1548 0.2546,0.3087 0.383,0.4624 0.2097,0.2517 0.4212,0.502 0.6344,0.7506 0.1335,0.1556 0.2673,0.3106 0.4019,0.4648 0.2118,0.2421 0.4252,0.4825 0.6404,0.7215 0.1888,0.21 0.3787,0.4189 0.57,0.6267 0.1693,0.1837 0.339,0.3662 0.5103,0.5479 0.2046,0.2177 0.4107,0.434 0.6182,0.6489 0.1834,0.1899 0.3679,0.3787 0.5536,0.5669 0.1882,0.1905 0.3776,0.3801 0.5681,0.5687 0.2035,0.2012 0.4082,0.4013 0.6142,0.5998 0.2279,0.2196 0.4575,0.4376 0.6886,0.6542 0.1474,0.1383 0.2953,0.2764 0.4439,0.4133 0.2582,0.2384 0.5187,0.4745 0.7806,0.7089 0.127,0.1134 0.254,0.2262 0.3816,0.3385 0.2704,0.2384 0.5425,0.4748 0.8166,0.7087 0.1341,0.1148 0.269,0.2284 0.404,0.3418 0.3277,0.2753 0.6576,0.5477 0.9901,0.8167 0.133,0.1077 0.2659,0.2154 0.3997,0.322 0.3047,0.2426 0.6114,0.4824 0.9198,0.72 0.1001,0.077 0.1999,0.1536 0.3002,0.2299 0.3164,0.2409 0.635,0.479 0.9553,0.7146 0.094,0.069 0.1879,0.1372 0.2821,0.2055 0.3274,0.2378 0.6565,0.4734 0.9878,0.7055 0.072,0.05 0.1435,0.1 0.2152,0.1492 0.4745,0.3293 0.9527,0.6528 1.4352,0.9703 0.075,0.049 0.1493,0.099 0.2245,0.1476 0.3475,0.2265 0.6973,0.4496 1.0488,0.6701 0.087,0.054 0.1738,0.1089 0.2608,0.1628 0.3515,0.2182 0.705,0.4331 1.0601,0.6448 0.087,0.052 0.1738,0.1029 0.2605,0.1542 0.3595,0.2121 0.7209,0.4216 1.0843,0.6273 10.3436,5.8516 21.9486,8.8816 33.8309,8.8816 11.66,0 23.0579,-2.9172 33.2617,-8.5632 l 1.2918,-0.7146 -0.1562,-1.6756 c -0.058,-14.542 -11.9656,-26.4138 -26.5207,-26.4138 h -29.887 c -1.7144,0 -3.125,-1.4108 -3.125,-3.1249 0,-1.7144 1.4106,-3.1252 3.125,-3.1252 h 41.7948 v -4.3177 c 0,-15.7281 -12.8534,-28.5815 -28.5817,-28.5815 h -8.7103 c -2.507,0 -4.5661,-2.0591 -4.5661,-4.5663 v -9.6191 c 0,-1.0088 -0.072,-2.001 -0.2091,-2.9735 27.9966,11.0744 63.4441,41.9779 63.4441,78.37 0,4.0598 -0.2979,8.0495 -0.8628,11.9528 -11.6127,7.532 -25.297,11.8829 -39.9518,11.8829 -42.0282,0 -76.0986,-35.7517 -76.0986,-79.8537 0,-11.3978 2.2799,-22.2355 6.3813,-32.0445 l -8e-4,5e-4 v 0 c 1.9391,-4.637 5.5819,-10.1977 8.081,-14.7632"
         style="fill:#e4a8c1;fill-opacity:1;fill-rule:evenodd;stroke:none"
         id="path88" />
    </g>
  </g>
</svg>
