<?xml version="1.0" encoding="UTF-8" standalone="no"?>
<!-- Created with Inkscape (http://www.inkscape.org/) -->

<svg
   version="1.1"
   id="svg2"
   width="559.37012"
   height="793.70081"
   viewBox="0 0 559.37012 793.70081"
   sodipodi:docname="Logo-fizjoterapia.svg"
   inkscape:version="1.2.1 (9c6d41e410, 2022-07-14)"
   xml:space="preserve"
   xmlns:inkscape="http://www.inkscape.org/namespaces/inkscape"
   xmlns:sodipodi="http://sodipodi.sourceforge.net/DTD/sodipodi-0.dtd"
   xmlns="http://www.w3.org/2000/svg"
   xmlns:svg="http://www.w3.org/2000/svg"><defs
     id="defs6" /><sodipodi:namedview
     id="namedview4"
     pagecolor="#ffffff"
     bordercolor="#000000"
     borderopacity="0.25"
     inkscape:showpageshadow="2"
     inkscape:pageopacity="0.0"
     inkscape:pagecheckerboard="0"
     inkscape:deskcolor="#d1d1d1"
     showgrid="false"
     inkscape:zoom="1.0545536"
     inkscape:cx="53.10304"
     inkscape:cy="247.4981"
     inkscape:window-width="1920"
     inkscape:window-height="1017"
     inkscape:window-x="-8"
     inkscape:window-y="-8"
     inkscape:window-maximized="1"
     inkscape:current-layer="svg2"><inkscape:page
       x="0"
       y="0"
       id="page8"
       width="559.37012"
       height="793.70081"
       inkscape:export-filename="logofotografia.png"
       inkscape:export-xdpi="96"
       inkscape:export-ydpi="96" /><inkscape:page
       x="569.37012"
       y="0"
       width="559.37012"
       height="793.70081"
       id="page364" /></sodipodi:namedview><g
     id="g10"
     inkscape:groupmode="layer"
     inkscape:label="Page 1"
     transform="matrix(1.3333333,0,0,-1.3333333,0,793.7008)" /><g
     id="g336"
     transform="matrix(1.1289569,0,0,-1.0523145,-55.106885,534.50097)"><g
       id="g338"><path
         d="m 218.1382,468.0207 h 2.1943 l 5.3027,-13.0235 h -2.8241 l -1.0429,2.56 h -4.998 l -1.0228,-2.56 h -2.8105 z m 1.1072,-4.2667 -1.5338,-3.8398 h 3.0982 z m 24.3774,1.4425 -1.8658,-1.7472 c -0.3892,0.6738 -0.8736,1.1783 -1.4493,1.5103 -0.5721,0.3353 -1.175,0.5011 -1.8049,0.5011 -1.019,0 -1.9029,-0.3861 -2.6512,-1.1613 -0.7518,-0.7722 -1.1276,-1.683 -1.1276,-2.7363 0,-1.1174 0.3758,-2.0622 1.1276,-2.8409 0.7483,-0.7756 1.6523,-1.165 2.7122,-1.165 0.5757,0 1.1276,0.1457 1.6628,0.4368 0.5315,0.2914 0.9581,0.8365 1.2832,1.6356 h -3.0883 v 2.5398 h 6.014 v -1.6863 c 0,-0.8668 -0.298,-1.7983 -0.8938,-2.7938 -0.5927,-0.999 -1.3782,-1.7235 -2.3502,-2.1841 -0.9717,-0.4604 -1.9539,-0.6908 -2.9461,-0.6908 -1.798,0 -3.3151,0.6502 -4.551,1.9539 -1.2359,1.3036 -1.8555,2.9154 -1.8555,4.8356 0,1.8184 0.6366,3.3727 1.9097,4.6627 1.2733,1.2903 2.8037,1.9369 4.5986,1.9369 2.2856,0 4.0465,-1.0023 5.2756,-3.007 z m 16.8701,2.8242 h 2.7431 v -13.0235 h -2.7159 l -5.98,8.4319 v -8.4319 h -2.804 v 13.0235 h 2.77 l 5.9868,-8.3707 z m 10.5718,0 h 2.8037 v -13.0235 h -2.8037 z m 10.7921,0 h 7.3343 v -2.5804 h -4.5306 v -2.6209 h 4.5306 v -2.5396 h -4.5306 v -2.7022 h 4.5306 v -2.5804 h -7.3343 z m 22.3761,-1.1716 -1.7473,-1.9168 c -0.9247,0.542 -1.5916,0.813 -1.9979,0.813 -0.3149,0 -0.5859,-0.1187 -0.8126,-0.3523 -0.2271,-0.2336 -0.3388,-0.5114 -0.3388,-0.8328 0,-0.6401 0.5825,-1.1957 1.7473,-1.6696 0.8532,-0.3657 1.5001,-0.6977 1.9403,-0.9922 0.4402,-0.2945 0.8093,-0.701 1.1072,-1.226 0.2982,-0.5213 0.447,-1.0868 0.447,-1.6962 0,-1.1208 -0.4538,-2.0928 -1.3578,-2.9191 -0.9039,-0.8294 -1.9743,-1.2427 -3.2068,-1.2427 -1.3544,0 -2.6886,0.6366 -4.0093,1.9099 l 1.8456,2.1535 c 0.8328,-0.8532 1.6084,-1.2798 2.3363,-1.2798 0.3388,0 0.6639,0.1488 0.9754,0.447 0.315,0.2945 0.4706,0.6061 0.4706,0.9346 0,0.6704 -0.7177,1.273 -2.1535,1.8014 -0.8195,0.3047 -1.402,0.589 -1.7507,0.8498 -0.3489,0.2608 -0.6434,0.6435 -0.8804,1.1413 -0.2373,0.5011 -0.3558,1.0091 -0.3558,1.5338 0,1.1582 0.3796,2.0962 1.1345,2.8173 0.7551,0.7215 1.7438,1.0803 2.9664,1.0803 1.446,0 2.6584,-0.4504 3.6403,-1.3544 z m 7.8695,1.1716 h 9.4476 l -5.8853,-10.3414 h 5.6821 v -2.6821 h -10.0165 l 5.8853,10.3416 h -5.1132 z m 17.0935,0 h 2.804 v -5.5128 h 0.0406 l 4.3409,5.5128 h 3.4203 l -4.9507,-6.2306 5.154,-6.7929 h -3.3897 l -4.5748,6.0817 h -0.0406 v -6.0817 h -2.804 z m 22.6979,0 h 2.1943 l 5.3027,-13.0235 h -2.8241 l -1.0429,2.56 h -4.998 l -1.0228,-2.56 h -2.8105 z m 1.1072,-4.2667 -1.5339,-3.8398 h 3.0983 z M 216.8785,445.8986 h 2.7836 v -9.2277 c 0,-1.1985 -0.332,-2.1603 -0.9921,-2.8882 -0.6639,-0.7282 -1.5308,-1.0905 -2.6042,-1.0905 -0.7719,0 -1.4661,0.2268 -2.0792,0.684 -0.6129,0.4572 -1.0835,1.1549 -1.4154,2.0962 l 2.0418,1.5475 v -0.0406 c 0.0136,-0.007 0.0814,-0.1525 0.1999,-0.4337 0.1187,-0.2843 0.2709,-0.5417 0.4538,-0.7684 0.1794,-0.2268 0.3759,-0.3422 0.589,-0.3422 0.3118,0 0.559,0.1287 0.7452,0.3861 0.1863,0.2574 0.2776,0.6026 0.2776,1.0329 z m 14.8756,0 h 2.1943 l 5.3028,-13.0235 h -2.8242 l -1.0428,2.5599 h -4.9981 l -1.0227,-2.5599 h -2.8103 z m 1.1075,-4.2668 -1.5341,-3.8398 h 3.0983 z m 22.3251,4.2668 h 2.7431 v -13.0235 h -2.7159 l -5.9802,8.4316 v -8.4316 h -2.8038 v 13.0235 h 2.77 l 5.9868,-8.3708 z m 10.7751,0 h 2.8037 v -5.5129 h 0.0408 l 4.341,5.5129 h 3.42 l -4.9504,-6.2309 5.1537,-6.7926 h -3.3897 l -4.5746,6.0817 h -0.0408 v -6.0817 h -2.8037 z m 16.5415,-6.5084 c 0,1.9267 0.6367,3.515 1.91,4.7713 1.2731,1.2529 2.7834,1.8794 4.5272,1.8794 1.9335,0 3.5286,-0.6299 4.7917,-1.8896 1.2631,-1.2631 1.8961,-2.8545 1.8961,-4.7781 0,-1.9131 -0.6264,-3.5014 -1.876,-4.7642 -1.2495,-1.2631 -2.8241,-1.8964 -4.7202,-1.8964 -1.8998,0 -3.4608,0.6299 -4.6899,1.8862 -1.2257,1.256 -1.8389,2.8545 -1.8389,4.7914 z m 6.5761,4.0499 c -1.0939,0.0204 -1.974,-0.3555 -2.6444,-1.1311 -0.6707,-0.7752 -1.006,-1.7742 -1.006,-2.9967 0,-1.158 0.3421,-2.1164 1.0261,-2.8783 0.6806,-0.762 1.544,-1.141 2.5872,-1.141 1.0936,0 1.9774,0.3759 2.6512,1.1276 0.6741,0.7484 1.0092,1.7405 1.0092,2.9696 0,1.2124 -0.3286,2.1841 -0.9887,2.9188 -0.6605,0.7351 -1.5376,1.1109 -2.6346,1.1311 z m 13.0437,2.4585 h 2.499 l 2.0826,-8.8787 2.1739,8.8787 h 1.8017 l 2.1603,-8.9193 2.1435,8.9193 h 2.4786 l -3.1322,-13.0235 h -2.6244 l -1.9335,7.9846 -1.9165,-7.9846 h -2.6549 z m 29.7513,-1.1716 -1.7473,-1.9168 c -0.9244,0.542 -1.5914,0.8127 -1.9979,0.8127 -0.3149,0 -0.5856,-0.1185 -0.8127,-0.3521 -0.2267,-0.2335 -0.3384,-0.5113 -0.3384,-0.8331 0,-0.6397 0.5822,-1.1953 1.7473,-1.6693 0.8532,-0.3657 1.5,-0.6976 1.9403,-0.9921 0.4402,-0.2945 0.8093,-0.701 1.1072,-1.226 0.2979,-0.5213 0.447,-1.0868 0.447,-1.6963 0,-1.1208 -0.4538,-2.0928 -1.3578,-2.9191 -0.9042,-0.8294 -1.9743,-1.2427 -3.2068,-1.2427 -1.3547,0 -2.6887,0.6367 -4.0093,1.91 l 1.8453,2.1535 c 0.8331,-0.8532 1.6087,-1.2799 2.3366,-1.2799 0.3387,0 0.6639,0.1489 0.9751,0.4468 0.315,0.2948 0.4709,0.6063 0.4709,0.9346 0,0.6706 -0.7181,1.2733 -2.1538,1.8017 -0.8195,0.3047 -1.4017,0.589 -1.7507,0.8498 -0.3486,0.2608 -0.6432,0.6435 -0.8801,1.1412 -0.2373,0.5012 -0.3558,1.0092 -0.3558,1.5338 0,1.1583 0.3793,2.0963 1.1344,2.8174 0.7552,0.7214 1.7439,1.0803 2.9665,1.0803 1.4457,0 2.658,-0.4504 3.64,-1.3544 z m 7.768,1.1716 h 2.8038 v -5.5129 h 0.0408 l 4.341,5.5129 h 3.42 l -4.9505,-6.2309 5.1537,-6.7926 h -3.3897 l -4.5745,6.0817 h -0.0408 v -6.0817 h -2.8038 z m 22.6979,0 h 2.1943 l 5.3028,-13.0235 h -2.8242 l -1.0429,2.5599 h -4.998 l -1.0228,-2.5599 h -2.8105 z m 1.1072,-4.2668 -1.5338,-3.8398 h 3.0982 z"
         style="fill:#1a1a18;fill-opacity:1;fill-rule:nonzero;stroke:none"
         id="path340" /><path
         d="m 212.9369,416.0775 h 5.9085 v -1.4556 h -4.4526 v -2.6373 h 4.4526 v -1.4556 h -4.4526 v -5.1035 h -1.4559 z m 12.2604,0 h 1.4556 v -10.652 h -1.4556 z m 8.1527,0 h 7.1929 l -5.0836,-9.1964 h 4.9807 v -1.4556 h -7.3468 l 5.0834,9.1964 H 233.35 Z m 16.028,0 h 1.4555 v -7.8092 c 0,-2.1237 -0.8846,-3.1852 -2.6543,-3.1852 -0.6137,0 -1.2189,0.1595 -1.8153,0.4793 l 0.7191,1.1818 c 0.468,-0.1599 0.8507,-0.2399 1.1475,-0.2399 0.7648,0 1.1475,0.514 1.1475,1.5387 z m 8.3355,-5.2517 c 0,1.5386 0.5794,2.8542 1.7382,3.9503 1.1617,1.0959 2.5546,1.6441 4.1817,1.6441 1.5897,0 2.9571,-0.5539 4.1071,-1.6582 1.1475,-1.1047 1.7212,-2.4149 1.7212,-3.9362 0,-1.607 -0.5681,-2.9656 -1.7011,-4.076 -1.1361,-1.1103 -2.5262,-1.6667 -4.176,-1.6667 -1.6296,0 -3.014,0.5592 -4.1556,1.6781 -1.1446,1.1188 -1.7155,2.4749 -1.7155,4.0646 z m 10.207,-0.0828 c 0,1.1733 -0.4226,2.1606 -1.2702,2.9656 -0.8478,0.8019 -1.8924,1.2044 -3.1312,1.2044 -1.176,0 -2.1835,-0.4081 -3.0225,-1.2274 -0.8394,-0.8161 -1.2589,-1.798 -1.2589,-2.9426 0,-1.1616 0.4309,-2.1436 1.2929,-2.9486 0.862,-0.8019 1.9154,-1.2044 3.1654,-1.2044 1.1503,0 2.1408,0.411 2.9741,1.2302 0.8337,0.8192 1.2504,1.7955 1.2504,2.9228 z m 7.1223,5.3345 h 6.5421 v -1.4556 h -2.5517 v -9.1964 h -1.4556 v 9.1964 h -2.5348 z m 12.7055,0 h 5.9085 v -1.4556 h -4.4526 v -2.6373 h 4.4526 v -1.4556 h -4.4526 v -3.6479 h 4.4526 v -1.4556 h -5.9085 z m 12.5172,0 h 2.3091 c 1.1503,0 2.0835,-0.2852 2.8057,-0.8561 0.722,-0.5708 1.0846,-1.3016 1.0846,-2.192 0,-0.7109 -0.231,-1.3416 -0.6965,-1.8867 -0.4652,-0.5451 -1.19,-0.9306 -2.1747,-1.1532 l 3.0767,-4.564 h -1.6696 l -2.9543,4.384 h -0.3254 v -4.384 h -1.4556 z m 1.4556,-1.2844 v -3.7162 c 2.1464,-0.0456 3.2199,0.5766 3.2199,1.8669 0,0.4507 -0.1259,0.8218 -0.377,1.1101 -0.2512,0.2854 -0.5851,0.4824 -1.0018,0.5853 -0.4195,0.1026 -1.0332,0.1539 -1.8411,0.1539 z m 15.5398,1.6954 5.0264,-11.063 h -1.5157 l -1.2359,2.7229 h -4.5241 l -1.2299,-2.7229 h -1.5129 z m 0.006,-3.3451 -1.7068,-3.7789 h 3.4223 z m 11.3726,2.9341 h 2.1407 c 1.2101,0 2.1864,-0.2852 2.9285,-0.8532 0.7421,-0.5681 1.1131,-1.3045 1.1131,-2.215 0,-0.9133 -0.3909,-1.6784 -1.1701,-2.2978 -0.7821,-0.6165 -1.9667,-0.919 -3.5566,-0.902 v -4.384 h -1.4556 z m 1.4556,-1.2671 v -3.7335 c 1.0876,0.0116 1.8924,0.1656 2.4176,0.4652 0.5225,0.297 0.785,0.7764 0.785,1.4357 0,0.4967 -0.1971,0.925 -0.5939,1.2875 -0.3966,0.3623 -1.2671,0.5451 -2.6087,0.5451 z m 11.404,1.2671 h 1.4556 v -10.652 h -1.4556 z m 12.4427,0.411 5.0264,-11.063 h -1.5157 l -1.2356,2.7229 h -4.5241 l -1.2302,-2.7229 h -1.5129 z m 0.006,-3.3451 -1.7068,-3.7789 h 3.4223 z"
         style="fill:#1a1a18;fill-opacity:1;fill-rule:nonzero;stroke:none"
         id="path342" /></g><g
       id="g344"><path
         d="m 109.3652,493.1935 c 6.9366,0 12.5597,-5.6234 12.5597,-12.5598 0,-6.9366 -5.6231,-12.5597 -12.5597,-12.5597 -6.9367,0 -12.5598,5.6231 -12.5598,12.5597 0,6.9364 5.6231,12.5598 12.5598,12.5598 z M 49.754,447.1169 c -0.0026,-0.0547 -0.0094,-0.1069 -0.0114,-0.1616 -0.0042,-0.1168 -0.0045,-0.2324 -0.0082,-0.3492 -0.0272,-0.7467 -0.0442,-1.4961 -0.0442,-2.2499 0,-13.3234 2.8553,-23.3906 7.1986,-31.4818 8.5189,-18.3898 23.0899,-32.8967 35.2593,-42.7215 -33.4267,38.6257 -1.3283,103.7794 56.5656,92.2626 -0.03,0.0105 -0.0952,0.0144 -0.1902,0.0124 9.792,-0.644 18.9247,-3.8361 26.8073,-8.9484 l 0.009,-0.0615 c -4.3954,30.5827 -30.7007,54.0876 -62.5,54.0876 -18.7557,0 -35.5978,-8.1794 -47.1623,-21.1629 24.2595,-1.1891 33.2175,-26.5354 18.4524,-45.1222 3.9243,25.1791 -7.9429,35.9674 -21.6927,41.1781 -7.4792,-9.8955 -12.1144,-22.0612 -12.683,-35.2817 z m 125.7177,5.3283 0.004,-0.002 c -0.0198,0.1548 -0.0436,0.3081 -0.0646,0.4623 0.0207,-0.1533 0.0411,-0.3067 0.0607,-0.4603"
         style="fill:#fbdeeb;fill-opacity:1;fill-rule:evenodd;stroke:none"
         id="path346" /><path
         d="m 97.7936,365.8708 c 0.0054,-0.0144 0.0107,-0.0286 0.0161,-0.0428 0.0111,-0.0156 0.0219,-0.0314 0.0329,-0.047 -0.4138,1.4862 -3.7318,13.6547 -2.6889,18.0107 l 0.0535,-0.0161 -0.0229,0.1471 0.0683,0.3147 c 1.8473,8.5076 3.8673,11.3445 12.3905,15.2421 l 0.0201,0.009 0.0202,0.009 c 3.4937,1.491 7.8168,1.9171 11.5699,1.9171 l 19.5746,0.5346 c 9.1826,0 16.5875,7.3012 17.1933,17.0583 l -41.3295,-0.1324 c -0.1298,0 -0.2599,-0.002 -0.3897,-0.005 -0.0406,-8e-4 -0.0814,-0.002 -0.1219,-0.004 -0.0933,-0.003 -0.1865,-0.006 -0.2795,-0.0105 -0.0428,-0.002 -0.0853,-0.004 -0.1278,-0.007 -0.0995,-0.005 -0.199,-0.0119 -0.2982,-0.019 -0.0307,-0.002 -0.0613,-0.004 -0.0916,-0.006 -0.1273,-0.01 -0.2543,-0.0213 -0.3813,-0.0343 -0.0306,-0.003 -0.0612,-0.007 -0.0918,-0.01 -0.0984,-0.0105 -0.1965,-0.0218 -0.2942,-0.034 -0.0423,-0.005 -0.0842,-0.0108 -0.1265,-0.0165 -0.0898,-0.0119 -0.1797,-0.0246 -0.2695,-0.038 -0.0392,-0.006 -0.078,-0.0113 -0.1171,-0.0175 -0.1182,-0.0185 -0.2361,-0.038 -0.3538,-0.059 -0.01,-0.002 -0.0193,-0.003 -0.0289,-0.005 -0.1202,-0.0218 -0.2401,-0.0451 -0.36,-0.0697 -0.04,-0.008 -0.0799,-0.0168 -0.1202,-0.0253 -0.0864,-0.0181 -0.1726,-0.0371 -0.2588,-0.0567 -0.0425,-0.01 -0.0847,-0.0195 -0.1267,-0.0294 -0.0904,-0.0213 -0.1803,-0.0437 -0.2701,-0.0664 -0.0329,-0.008 -0.0658,-0.0161 -0.0984,-0.0246 -0.1188,-0.0309 -0.237,-0.063 -0.3549,-0.0967 -0.0315,-0.009 -0.0626,-0.0184 -0.0938,-0.0275 -0.0896,-0.0261 -0.1786,-0.0524 -0.2676,-0.0799 -0.0428,-0.0134 -0.0856,-0.027 -0.1281,-0.0406 -0.08,-0.0252 -0.1593,-0.0513 -0.2387,-0.0779 -0.0411,-0.0136 -0.0822,-0.0272 -0.1233,-0.0414 -0.099,-0.034 -0.1976,-0.0689 -0.296,-0.1046 -0.0184,-0.007 -0.0371,-0.0133 -0.0547,-0.0196 -0.1119,-0.0414 -0.2236,-0.0839 -0.3345,-0.1278 -0.0416,-0.0165 -0.083,-0.0335 -0.1247,-0.0502 -0.0751,-0.0303 -0.1502,-0.0609 -0.2251,-0.0924 -0.0439,-0.0184 -0.0875,-0.0368 -0.1312,-0.0556 -0.0762,-0.0326 -0.1519,-0.0663 -0.2276,-0.1 -0.0377,-0.0167 -0.0754,-0.0332 -0.1128,-0.0505 -0.1066,-0.0484 -0.2129,-0.0981 -0.3184,-0.1491 -0.036,-0.0173 -0.072,-0.0354 -0.108,-0.053 -0.0745,-0.0368 -0.1494,-0.0737 -0.2236,-0.1117 -0.0445,-0.0226 -0.089,-0.0459 -0.1335,-0.0688 -0.0664,-0.0346 -0.1321,-0.0698 -0.1982,-0.1049 -0.0439,-0.0236 -0.0879,-0.0474 -0.1315,-0.0712 -0.0754,-0.0416 -0.1505,-0.0839 -0.2254,-0.1264 -0.0416,-0.0238 -0.0833,-0.0473 -0.1244,-0.0712 -0.0884,-0.0515 -0.1766,-0.1034 -0.2639,-0.1564 -0.0448,-0.0272 -0.089,-0.0547 -0.1335,-0.0822 -0.0604,-0.0374 -0.1205,-0.0752 -0.1806,-0.1131 -0.0459,-0.0289 -0.0915,-0.0584 -0.1372,-0.0879 -0.0595,-0.0388 -0.1188,-0.0782 -0.1783,-0.1176 -0.0422,-0.0284 -0.085,-0.0565 -0.1273,-0.0854 -0.0918,-0.0626 -0.1834,-0.1258 -0.2741,-0.1902 -0.0425,-0.0303 -0.0844,-0.0612 -0.127,-0.0918 -0.0564,-0.0411 -0.1128,-0.0819 -0.1686,-0.1236 -0.0468,-0.0346 -0.093,-0.0697 -0.1392,-0.1046 -0.051,-0.0386 -0.1015,-0.0777 -0.1519,-0.1168 -0.0462,-0.0357 -0.0924,-0.0714 -0.1381,-0.1077 -0.0524,-0.0417 -0.1046,-0.0842 -0.1567,-0.1264 -0.0681,-0.0553 -0.1358,-0.1114 -0.2033,-0.1678 -0.057,-0.048 -0.1142,-0.0959 -0.1709,-0.1446 -0.0468,-0.0403 -0.0927,-0.0814 -0.1392,-0.1219 -0.0442,-0.0391 -0.0887,-0.0785 -0.1327,-0.1179 -0.0467,-0.042 -0.0932,-0.0842 -0.1391,-0.1264 -0.0431,-0.0397 -0.0856,-0.0797 -0.1282,-0.1197 -0.0456,-0.0425 -0.0912,-0.085 -0.1363,-0.1284 -0.0476,-0.0456 -0.0944,-0.0918 -0.1412,-0.138 -0.0757,-0.074 -0.1505,-0.1491 -0.2248,-0.2248 -0.0379,-0.0388 -0.0762,-0.0774 -0.1139,-0.1168 -0.0465,-0.0482 -0.0927,-0.0969 -0.1386,-0.146 -0.036,-0.038 -0.0715,-0.0765 -0.1072,-0.1151 -0.0462,-0.0496 -0.0918,-0.0995 -0.1372,-0.1499 -0.0331,-0.0369 -0.066,-0.0743 -0.0992,-0.1117 -0.087,-0.0984 -0.1732,-0.1979 -0.2579,-0.2982 -0.0273,-0.0323 -0.0547,-0.0644 -0.0817,-0.0967 -0.0456,-0.0547 -0.0904,-0.11 -0.1352,-0.1655 -0.0303,-0.0372 -0.0607,-0.0746 -0.0907,-0.1123 -0.0442,-0.0552 -0.0882,-0.1111 -0.1315,-0.1672 -0.0289,-0.0372 -0.0576,-0.0749 -0.0862,-0.1123 -0.0439,-0.0575 -0.0879,-0.1151 -0.1312,-0.1732 -0.0165,-0.0218 -0.0321,-0.0442 -0.0485,-0.066 -0.0902,-0.1228 -0.1789,-0.2469 -0.2659,-0.3722 -0.0235,-0.0337 -0.0473,-0.0677 -0.0709,-0.1018 -0.0419,-0.0612 -0.083,-0.123 -0.1244,-0.1848 -0.0244,-0.0368 -0.0488,-0.074 -0.0729,-0.1108 -0.0411,-0.0624 -0.0816,-0.125 -0.1216,-0.188 -0.0207,-0.0326 -0.0408,-0.0654 -0.0612,-0.098 -1.218,-1.9455 -2.2127,-5.2818 -3.1147,-7.3902 -0.6284,-1.4687 -1.2232,-2.9512 -1.8201,-4.4326 l -2.7743,-6.8853 -0.5417,7.4035 c -0.0947,1.2917 -0.1423,2.5866 -0.1423,3.8818 0,6.6262 1.2345,13.1754 3.6754,19.3368 l 0.0088,0.0224 c 0.1321,0.3333 0.2679,0.665 0.4068,0.9952 0.0334,0.0791 0.0674,0.1579 0.1009,0.2367 0.1298,0.3039 0.2622,0.6069 0.3974,0.9085 0.0388,0.0862 0.0782,0.1724 0.1173,0.2585 0.1324,0.2903 0.2676,0.5794 0.4051,0.8674 0.0411,0.0859 0.0822,0.1721 0.1236,0.2577 0.1429,0.2942 0.2886,0.5871 0.4365,0.8787 0.0468,0.0916 0.0936,0.1837 0.1406,0.275 0.1574,0.3047 0.317,0.608 0.4799,0.9096 0.0454,0.0837 0.0916,0.167 0.1372,0.2503 0.1491,0.2725 0.3008,0.544 0.4547,0.8136 0.0536,0.0938 0.1075,0.1871 0.1613,0.2803 0.1514,0.2611 0.3053,0.5208 0.4609,0.7793 0.0559,0.093 0.1117,0.1859 0.1681,0.2783 0.1622,0.2654 0.3271,0.5293 0.4941,0.7915 0.0731,0.1148 0.1463,0.229 0.22,0.3432 0.1666,0.2574 0.335,0.514 0.5059,0.7685 0.0667,0.099 0.1338,0.1973 0.201,0.2957 0.1593,0.2338 0.3206,0.4666 0.4836,0.6979 0.0746,0.1054 0.1494,0.2106 0.2245,0.3155 0.161,0.225 0.3243,0.4484 0.489,0.6706 0.0916,0.1236 0.1834,0.2469 0.2761,0.3697 0.1562,0.2069 0.3141,0.4127 0.4731,0.6171 0.1108,0.1423 0.2219,0.284 0.3342,0.4249 0.163,0.2049 0.3268,0.4093 0.4927,0.612 0.0969,0.1182 0.1944,0.2356 0.2922,0.3529 0.1602,0.1922 0.3217,0.383 0.4845,0.5729 0.1017,0.1188 0.204,0.237 0.3067,0.3549 0.1615,0.1848 0.3245,0.3682 0.4887,0.5505 0.1442,0.1604 0.2891,0.3197 0.4351,0.4785 0.1292,0.14 0.2588,0.2795 0.3895,0.4181 0.1561,0.1661 0.3135,0.3311 0.4716,0.4952 0.1404,0.1451 0.281,0.2891 0.4227,0.4328 0.1437,0.1455 0.2883,0.2903 0.4337,0.434 0.1553,0.1537 0.3115,0.3062 0.4688,0.4578 0.1741,0.1678 0.3493,0.3339 0.5256,0.4995 0.1125,0.1054 0.2253,0.2106 0.3387,0.3155 0.1973,0.1817 0.396,0.362 0.5959,0.5408 0.0969,0.0865 0.1939,0.1727 0.2914,0.2585 0.2063,0.182 0.4138,0.3623 0.623,0.5409 0.1026,0.0876 0.2055,0.1743 0.3087,0.2611 0.25,0.2097 0.5017,0.4178 0.7554,0.6233 0.1015,0.0819 0.2033,0.1641 0.3053,0.2455 0.2325,0.1854 0.4666,0.3682 0.7019,0.5496 0.0762,0.0587 0.1525,0.1174 0.229,0.1755 0.2415,0.184 0.4848,0.3657 0.7294,0.5454 0.0714,0.0524 0.1434,0.1049 0.2151,0.157 0.2498,0.1814 0.5012,0.3611 0.7541,0.5383 0.0547,0.0383 0.1097,0.076 0.1644,0.114 0.3619,0.2511 0.727,0.4983 1.0953,0.7404 0.0572,0.0377 0.1139,0.0754 0.1712,0.1128 0.2653,0.1729 0.5323,0.3433 0.8008,0.5114 0.0663,0.0416 0.1326,0.083 0.199,0.1244 0.2681,0.1664 0.538,0.3305 0.809,0.4921 0.0663,0.0394 0.1326,0.0785 0.199,0.1176 0.2744,0.1619 0.5502,0.3218 0.8274,0.4788 7.895,4.4663 16.7525,6.7791 25.8219,6.7791 8.8997,0 17.5992,-2.2267 25.3874,-6.5359 l 0.9862,-0.5456 -0.1194,-1.279 c -0.0445,-11.0994 -9.1329,-20.1603 -20.2422,-20.1603 h -22.8118 c -1.3085,0 -2.3851,-1.0769 -2.3851,-2.3854 0,-1.3085 1.0766,-2.3853 2.3851,-2.3853 h 31.9005 v -3.2956 c 0,-12.0044 -9.8107,-21.8151 -21.8151,-21.8151 h -6.6484 c -1.9137,0 -3.4852,-1.5716 -3.4852,-3.4852 v -7.3421 c 0,-0.7698 -0.0553,-1.5273 -0.1599,-2.2694 21.369,8.4527 48.4246,32.0403 48.4246,59.8167 0,3.0989 -0.2274,6.1441 -0.6585,9.1233 -8.8634,5.749 -19.3082,9.0698 -30.4934,9.0698 -32.0786,0 -58.0833,-27.288 -58.0833,-60.9495 0,-8.6995 1.7402,-16.9715 4.8707,-24.4584 l -8e-4,6e-4 0.0017,-0.003 c 1.48,-3.539 4.2607,-7.7833 6.1682,-11.268"
         style="fill:#e4a8c1;fill-opacity:1;fill-rule:evenodd;stroke:none"
         id="path348" /></g></g></svg>
