<?xml version="1.0" encoding="UTF-8" standalone="no"?>
<!-- Created with Inkscape (http://www.inkscape.org/) -->

<svg
   width="210mm"
   height="297mm"
   viewBox="0 0 210 297"
   version="1.1"
   id="svg5"
   xml:space="preserve"
   inkscape:export-filename="bitmapa.svg"
   inkscape:export-xdpi="96"
   inkscape:export-ydpi="96"
   inkscape:version="1.2.1 (9c6d41e410, 2022-07-14)"
   sodipodi:docname="rysunek.svg"
   xmlns:inkscape="http://www.inkscape.org/namespaces/inkscape"
   xmlns:sodipodi="http://sodipodi.sourceforge.net/DTD/sodipodi-0.dtd"
   xmlns="http://www.w3.org/2000/svg"
   xmlns:svg="http://www.w3.org/2000/svg"><sodipodi:namedview
     id="namedview7"
     pagecolor="#ffffff"
     bordercolor="#000000"
     borderopacity="0.25"
     inkscape:showpageshadow="2"
     inkscape:pageopacity="0.0"
     inkscape:pagecheckerboard="0"
     inkscape:deskcolor="#d1d1d1"
     inkscape:document-units="mm"
     showgrid="false"
     inkscape:zoom="0.72515432"
     inkscape:cx="-3.447542"
     inkscape:cy="39.301979"
     inkscape:window-width="1920"
     inkscape:window-height="1001"
     inkscape:window-x="-9"
     inkscape:window-y="-9"
     inkscape:window-maximized="1"
     inkscape:current-layer="layer1" /><defs
     id="defs2" /><g
     inkscape:label="Warstwa 1"
     inkscape:groupmode="layer"
     id="layer1"><path
       style="fill:#3f0278;stroke-width:0.745;fill-opacity:1;stroke:#000000;stroke-opacity:1;stroke-dasharray:none;stroke-dashoffset:0"
       d="M 47.02528,52.885382 C 62.436387,38.469238 66.159375,35.419785 65.262513,31.162732 64.912322,29.500511 60.583705,25.549898 57.749204,25.910453 53.958292,26.392666 49.74865,28.156326 42.557055,32.376258 31.39016,38.928843 15.253865,49.177013 6.7079589,63.467612 25.915763,72.05829 31.779714,67.685331 36.816604,62.362592 c 3.440012,-3.635237 8.008485,-7.162858 10.208676,-9.47721 z"
       id="path480"
       sodipodi:nodetypes="cssscsc" /><path
       style="fill:#3f0278;stroke-width:0.745;fill-opacity:1;stroke:#000000;stroke-opacity:1;stroke-dasharray:none;stroke-dashoffset:0;opacity:1"
       d="m 47.043736,74.049579 c 15.411111,14.416147 19.134101,17.465597 18.237241,21.722653 -0.3502,1.66222 -4.678811,5.612828 -7.513311,5.252278 -3.79092,-0.48222 -8.00056,-2.245878 -15.19215,-6.465804 C 31.408618,88.006126 15.272323,77.757948 6.7264134,63.467345 c 19.2078096,-8.59068 25.0717586,-4.21772 30.1086486,1.10502 3.440012,3.63524 8.008484,7.16286 10.208674,9.477214 z"
       id="path480-0"
       sodipodi:nodetypes="cssscsc" /><a
       id="a2186"
       style="stroke-dasharray:none;stroke-dashoffset:0;stroke:#000000;stroke-opacity:1;stroke-width:0.745"><path
         style="fill:#3f0278;stroke-width:0.745;fill-opacity:1;stroke:#000000;stroke-opacity:1;stroke-dasharray:none;stroke-dashoffset:0"
         d="m 139.53831,72.973993 c -15.4111,14.416144 -19.13409,17.465597 -18.23723,21.72265 0.35019,1.662221 4.67881,5.612837 7.51331,5.252279 3.79091,-0.482213 8.00055,-2.245873 15.19215,-6.465805 11.16689,-6.552585 27.30319,-16.800755 35.8491,-31.091354 -19.20781,-8.590678 -25.07176,-4.217719 -30.10865,1.10502 -3.44001,3.635237 -8.00848,7.162858 -10.20868,9.47721 z"
         id="path480-8"
         sodipodi:nodetypes="cssscsc" /><path
         style="fill:#3f0278;stroke-width:0.745;fill-opacity:1;stroke:#000000;stroke-opacity:1;stroke-dasharray:none;stroke-dashoffset:0"
         d="m 139.51986,51.809796 c -15.41111,-14.416143 -19.1341,-17.465593 -18.23724,-21.722653 0.3502,-1.66222 4.67881,-5.612827 7.51331,-5.25228 3.79092,0.48222 8.00056,2.24588 15.19215,6.46581 11.1669,6.55258 27.30319,16.800754 35.8491,31.091357 -19.20781,8.59068 -25.07176,4.21772 -30.10865,-1.10502 -3.44001,-3.63524 -8.00848,-7.16286 -10.20867,-9.477214 z"
         id="path480-0-3"
         sodipodi:nodetypes="cssscsc" /></a><path
       style="fill:#3f0278;stroke-width:0.745;fill-opacity:1;stroke:#000000;stroke-opacity:1;stroke-dasharray:none;stroke-dashoffset:0"
       d="M 84.734532,52.979993 C 51.056197,120.85835 80.732754,117.96186 102.15273,63.482896 109.96748,42.954441 119.2952,22.355802 115.9173,16.988091 112.85184,12.116869 101.41063,18.727406 84.734532,52.979993 Z"
       id="path480-0-3-0"
       sodipodi:nodetypes="ccsc" /></g></svg>
